<?xml version="1.0" encoding="UTF-8" standalone="no"?>
<!-- Created with Inkscape (http://www.inkscape.org/) -->

<svg
   width="45.872662"
   height="45.872692"
   viewBox="0 0 12.137142 12.13715"
   version="1.1"
   id="svg5"
   xml:space="preserve"
   xmlns="http://www.w3.org/2000/svg"
   xmlns:svg="http://www.w3.org/2000/svg"><defs
     id="defs2" /><g
     id="layer1"
     transform="translate(-980.44077,-776.54783)"><path
       style="fill:#343772;fill-opacity:1;stroke:none;stroke-width:0.0240438"
       d="m 984.99891,787.23134 c -0.63025,0.0133 -1.37472,0.15617 -1.84336,-0.41421 -0.18665,-0.22715 -0.25778,-0.52999 -0.41246,-0.77941 -0.15664,-0.25256 -0.36107,-0.37451 -0.56389,-0.57467 -0.0625,-0.0617 -0.15675,-0.17902 -0.048,-0.24581 0.27482,-0.16877 0.71508,0.14998 0.89791,0.33365 0.19487,0.19575 0.30086,0.46142 0.50054,0.65004 0.32823,0.31007 1.07327,0.46668 1.45704,0.14798 0.0861,-0.0715 0.0879,-0.25709 0.12369,-0.35991 0.0648,-0.18616 0.18525,-0.32688 0.29196,-0.48719 -0.78551,-0.0346 -1.66454,-0.36289 -2.17231,-0.99875 -0.52662,-0.65941 -0.67476,-1.68552 -0.55369,-2.50904 0.0407,-0.27709 0.13983,-0.56554 0.28314,-0.80387 0.0774,-0.12879 0.25773,-0.29112 0.28502,-0.43847 0.0227,-0.12268 -0.071,-0.29049 -0.0897,-0.41412 -0.0461,-0.30588 -0.0572,-0.96267 0.17576,-1.20424 0.10831,-0.1123 0.35665,-0.0285 0.48171,0.0112 0.26841,0.0853 0.53635,0.21061 0.78316,0.34795 0.12452,0.0693 0.26178,0.20557 0.40344,0.22835 0.20234,0.0325 0.4847,-0.0942 0.68823,-0.12777 0.37849,-0.0624 0.77988,-0.0841 1.16286,-0.0572 0.27043,0.019 0.54092,0.0613 0.80689,0.11483 0.12295,0.0247 0.2783,0.0988 0.40344,0.0651 0.50433,-0.13617 0.92192,-0.67929 1.49509,-0.63812 0.16464,0.0118 0.2042,0.17285 0.24396,0.30987 0.0932,0.32089 0.13886,0.66863 0.0725,0.99875 -0.0241,0.11987 -0.12094,0.29743 -0.0635,0.41411 0.19697,0.40023 0.458,0.68203 0.54305,1.14491 0.15279,0.83159 -0.0194,1.92692 -0.56577,2.58212 -0.51161,0.61354 -1.3784,0.94028 -2.15248,0.97438 0.0991,0.15388 0.21826,0.28774 0.28322,0.46284 0.20072,0.54098 0.12022,1.18634 0.12022,1.75389 0,0.24362 -0.10177,0.78438 0.14284,0.92596 0.23768,0.13756 0.63535,-0.11159 0.8539,-0.2092 0.82307,-0.36754 1.57495,-0.95178 2.14053,-1.66678 1.78209,-2.25293 1.91358,-5.55914 0.13097,-7.86817 -2.31372,-2.99697 -6.89323,-3.17853 -9.36049,-0.26795 -0.91466,1.07901 -1.35228,2.34921 -1.48228,3.75138 -0.0729,0.78669 0.0452,1.64031 0.29698,2.38724 0.47875,1.42051 1.46225,2.67248 2.74475,3.40694 0.3053,0.17486 0.62058,0.32085 0.94927,0.44301 0.14449,0.0537 0.33408,0.10942 0.46199,-0.0151 0.12286,-0.11956 0.0962,-0.29538 0.086,-0.4489 -0.0203,-0.30586 -0.002,-0.61907 -0.002,-0.92566 z"
       id="path3272-2" /></g></svg>
