<?xml version="1.0" encoding="UTF-8" standalone="no"?>
<!-- Created with Inkscape (http://www.inkscape.org/) -->

<svg
   width="45.872692"
   height="45.872692"
   viewBox="0 0 12.13715 12.13715"
   version="1.1"
   id="svg5"
   xml:space="preserve"
   xmlns="http://www.w3.org/2000/svg"
   xmlns:svg="http://www.w3.org/2000/svg"><defs
     id="defs2" /><g
     id="layer1"
     transform="translate(-944.17515,-776.54783)"><path
       id="path3124-32"
       style="fill:#343772;fill-opacity:1;stroke:none;stroke-width:0.265326;stroke-linecap:square;stroke-linejoin:round;stroke-dasharray:none"
       d="m 950.24372,776.54783 a 6.0686312,6.0685215 0 0 0 -6.06857,6.06865 6.0686312,6.0685215 0 0 0 6.06857,6.0685 6.0686312,6.0685215 0 0 0 6.06858,-6.0685 6.0686312,6.0685215 0 0 0 -6.06858,-6.06865 z m -3.08947,2.91241 c 0.0862,0.002 0.18121,0.0178 0.27957,0.0457 0.11044,0.0313 0.29072,0.10428 0.28397,0.11494 -0.002,0.003 6.1e-4,0.004 0.006,0.002 0.0117,-0.004 0.0373,0.008 0.0323,0.0163 -0.002,0.003 8.1e-4,0.004 0.007,0.002 0.008,-0.003 0.009,-0.002 0.006,0.004 -0.004,0.005 -0.003,0.007 0.002,0.004 0.009,-0.005 0.0373,0.009 0.14191,0.0685 0.0443,0.0254 0.0791,0.0485 0.0773,0.0513 -0.002,0.003 1.8e-4,0.007 0.004,0.01 0.005,0.003 0.006,0.002 0.002,-0.003 -0.004,-0.005 -0.002,-0.007 0.004,-0.005 0.005,0.002 0.009,0.006 0.009,0.01 0,0.004 0.003,0.009 0.006,0.0118 0.003,0.003 0.004,0.002 0.002,-0.003 -0.006,-0.0116 4e-5,-0.009 0.0277,0.009 0.0137,0.009 0.0236,0.0184 0.022,0.0211 -0.002,0.003 1.5e-4,0.007 0.004,0.01 0.005,0.003 0.006,0.002 0.003,-0.003 -0.007,-0.0111 0.006,-0.008 0.0159,0.003 0.007,0.009 0.007,0.01 -1.5e-4,0.005 -0.006,-0.004 -0.007,-0.003 -0.004,0.002 0.002,0.004 0.007,0.006 0.0105,0.004 0.006,-0.003 0.11948,0.0747 0.11948,0.0817 0,0.002 -0.003,10e-4 -0.006,-9.5e-4 -0.0103,-0.006 -0.007,9.5e-4 0.004,0.0101 0.007,0.006 0.009,0.006 0.006,7.7e-4 -0.008,-0.0131 0.006,-0.009 0.0187,0.006 0.0119,0.0137 0.0119,0.0137 -6e-4,0.005 -0.0126,-0.009 -0.0124,-0.009 -6.1e-4,0.005 0.0124,0.0141 0.0202,0.0187 0.0132,0.008 -0.007,-0.0119 0.008,-0.006 0.0196,0.008 0.012,0.0137 0.0119,0.0136 -6.1e-4,0.005 -0.0125,-0.009 -0.0125,-0.009 -6e-4,0.005 0.0124,0.0141 0.0203,0.0187 0.0134,0.008 -0.009,-0.0146 0.009,-0.004 0.0383,0.0235 0.0176,0.016 0.026,0.025 0.0189,0.0199 -0.0104,-0.007 -0.01,-0.006 0.002,0.008 0.0153,0.0169 0.0236,0.0224 0.0163,0.0107 -0.0109,-0.0172 0.0113,-10e-4 0.0542,0.0388 0.0264,0.0246 0.0377,0.0364 0.0252,0.0262 l -0.0226,-0.0185 0.0249,0.0262 c 0.0242,0.0254 0.0337,0.0328 0.0256,0.0201 -0.002,-0.003 -6.1e-4,-0.006 0.003,-0.006 0.009,0 0.42352,0.4051 0.42352,0.4144 0,0.005 -0.002,0.005 -0.01,-4.8e-4 -0.0208,-0.0169 -0.008,-9.7e-4 0.0205,0.025 0.03,0.0275 0.0301,0.0275 0.008,0.003 -0.0185,-0.0207 -0.0168,-0.0197 0.011,0.006 0.0313,0.029 0.046,0.0514 0.0222,0.0337 -0.006,-0.005 2.1e-4,0.003 0.0139,0.0178 0.0281,0.0292 0.0393,0.0354 0.0157,0.009 -0.008,-0.01 -1.1e-4,-0.002 0.0185,0.0168 0.0398,0.0405 0.22219,0.25129 0.22219,0.25685 0,0.002 -0.004,0.002 -0.008,-5.9e-4 -0.004,-0.003 -0.002,10e-4 0.004,0.009 0.0145,0.0161 0.0211,0.0179 0.01,0.003 -0.004,-0.006 0.005,0.003 0.0212,0.0201 0.0272,0.0288 0.0378,0.0459 0.0232,0.0371 -0.0104,-0.006 -0.007,8.1e-4 0.004,0.01 0.009,0.007 0.01,0.007 0.006,-7.7e-4 -0.005,-0.008 -0.004,-0.008 0.005,-7.7e-4 0.0124,0.01 0.0146,0.0222 0.003,0.0155 -0.004,-0.003 -0.002,10e-4 0.004,0.009 0.0144,0.016 0.0217,0.018 0.009,0.003 -0.007,-0.009 -0.006,-0.008 0.006,10e-4 0.015,0.0125 0.0196,0.026 0.006,0.0184 -0.004,-0.003 -0.002,0.001 0.004,0.009 0.0144,0.016 0.0217,0.018 0.009,0.003 -0.007,-0.009 -0.006,-0.009 0.006,9.7e-4 0.0149,0.0125 0.0196,0.026 0.006,0.0184 -0.004,-0.003 -0.002,0.002 0.004,0.009 0.0143,0.016 0.0216,0.018 0.009,0.003 -0.007,-0.009 -0.006,-0.009 0.006,9.7e-4 0.0139,0.0116 0.0199,0.0265 0.008,0.0192 -0.0103,-0.006 -0.007,7.9e-4 0.004,0.01 0.009,0.007 0.01,0.007 0.006,-7.9e-4 -0.002,-0.005 0.004,5.4e-4 0.0145,0.0124 0.0107,0.0119 0.0183,0.0248 0.0168,0.0288 -0.002,0.004 0.002,0.011 0.008,0.0155 0.01,0.008 0.01,0.007 0.002,-0.004 -0.009,-0.0122 -0.009,-0.0123 0.005,-5.9e-4 0.0139,0.0116 0.0201,0.0264 0.008,0.019 -0.0103,-0.006 -0.007,9.7e-4 0.004,0.0101 0.009,0.007 0.01,0.007 0.005,-7.9e-4 -0.005,-0.008 -0.004,-0.008 0.006,-7.8e-4 0.0113,0.009 0.015,0.0227 0.004,0.0162 -0.0103,-0.006 -0.007,7.9e-4 0.004,0.01 0.009,0.007 0.01,0.007 0.006,-7.9e-4 -0.005,-0.008 -0.004,-0.008 0.005,-7.8e-4 0.0113,0.009 0.0151,0.0227 0.004,0.0162 -0.0104,-0.006 -0.007,8.1e-4 0.004,0.01 0.009,0.007 0.01,0.007 0.005,-7.8e-4 -0.005,-0.008 -0.004,-0.008 0.005,-7.9e-4 0.0113,0.009 0.015,0.0227 0.004,0.0162 -0.0103,-0.006 -0.007,8.9e-4 0.004,0.01 0.009,0.007 0.01,0.007 0.005,-7.9e-4 -0.005,-0.008 -0.004,-0.008 0.006,-7.9e-4 0.0114,0.009 0.0151,0.0227 0.004,0.0163 -0.0104,-0.006 -0.007,9.7e-4 0.004,0.0101 0.007,0.006 0.009,0.006 0.006,7.9e-4 -0.003,-0.004 -0.004,-0.008 -0.002,-0.008 0.006,0 0.0806,0.10565 0.0773,0.1108 -0.002,0.003 -3.1e-4,0.008 0.004,0.0103 0.005,0.003 0.006,10e-4 0.003,-0.004 -0.002,-0.005 0.003,-2.2e-4 0.0117,0.01 0.009,0.0102 0.0149,0.0219 0.0133,0.0261 -0.002,0.004 2.2e-4,0.009 0.004,0.0116 0.004,0.003 0.006,10e-4 0.002,-0.004 -0.002,-0.005 0.003,-2.2e-4 0.0116,0.01 0.009,0.0102 0.015,0.0219 0.0133,0.0261 -8.1e-4,0.004 3.1e-4,0.009 0.004,0.0118 0.004,0.003 0.006,0.001 0.002,-0.003 -0.002,-0.004 -0.003,-0.007 -0.002,-0.007 0.006,0 0.0421,0.056 0.0387,0.0614 -0.002,0.003 -3e-4,0.008 0.004,0.0101 0.005,0.003 0.006,0.002 0.002,-0.004 -0.005,-0.007 -0.004,-0.007 0.006,-1.5e-4 0.012,0.009 0.0149,0.0225 0.004,0.0156 -0.004,-0.003 -0.006,-0.002 -0.003,0.003 0.002,0.004 0.006,0.006 0.01,0.004 0.004,-0.003 0.1648,0.22587 0.1648,0.23479 0,0.002 -0.003,10e-4 -0.007,-8.9e-4 -0.004,-0.003 -0.006,-0.002 -0.003,0.003 0.002,0.004 0.007,0.006 0.0102,0.004 0.007,-0.004 0.0207,0.0199 0.0159,0.0276 -0.002,0.003 -1.6e-4,0.008 0.004,0.01 0.005,0.003 0.006,0.002 0.003,-0.003 -0.002,-0.004 -0.003,-0.007 -0.002,-0.007 0.008,0 0.0741,0.11174 0.0701,0.11816 -0.003,0.004 -0.002,0.006 0.002,0.003 0.008,-0.005 0.0987,0.1419 0.0928,0.15126 -0.003,0.004 -0.002,0.005 0.002,0.003 0.009,-0.005 0.0289,0.0308 0.0227,0.0406 -0.003,0.004 -0.002,0.005 0.003,0.003 0.009,-0.005 0.0353,0.043 0.029,0.0529 -0.003,0.004 -0.002,0.005 0.003,0.003 0.009,-0.005 0.0351,0.0432 0.0288,0.053 -0.002,0.004 -0.002,0.005 0.004,0.002 0.006,-0.004 0.007,-0.002 0.004,0.005 -0.002,0.006 -0.002,0.009 0.002,0.007 0.008,-0.005 0.0651,0.10639 0.0594,0.1154 -0.003,0.004 -8.1e-4,0.005 0.004,0.002 0.006,-0.004 0.007,-0.002 0.005,0.004 -0.003,0.007 0.002,0.009 0.0142,0.009 0.013,0 0.0168,-0.002 0.0141,-0.009 -0.002,-0.006 -0.002,-0.008 0.005,-0.004 0.006,0.003 0.006,0.003 0.004,-0.002 -0.006,-0.009 0.0515,-0.12016 0.0594,-0.1154 0.004,0.002 0.004,-9.7e-4 0.002,-0.007 -0.003,-0.008 -0.002,-0.009 0.004,-0.005 0.006,0.003 0.007,0.003 0.004,-0.002 -0.006,-0.01 0.0202,-0.0583 0.0289,-0.053 0.004,0.003 0.006,0.002 0.003,-0.003 -0.006,-0.01 0.0201,-0.0581 0.0289,-0.0529 0.004,0.003 0.006,10e-4 0.003,-0.003 -0.006,-0.01 0.0139,-0.0459 0.0226,-0.0406 0.004,0.003 0.006,0.001 0.002,-0.003 -0.006,-0.009 0.0842,-0.1564 0.0927,-0.15126 0.004,0.002 0.005,8.9e-4 0.002,-0.003 -0.004,-0.006 0.0621,-0.11816 0.0699,-0.11816 0.002,0 0.002,0.003 -0.002,0.007 -0.003,0.004 -0.002,0.005 0.003,0.003 0.004,-0.003 0.006,-0.007 0.004,-0.01 -0.005,-0.008 0.009,-0.0318 0.0159,-0.0276 0.003,0.002 0.008,-10e-6 0.0102,-0.004 0.002,-0.005 0.002,-0.006 -0.003,-0.003 -0.004,0.002 -0.007,0.003 -0.007,8.9e-4 0,-0.009 0.16041,-0.23744 0.1648,-0.23479 0.003,0.002 0.007,-3e-4 0.01,-0.004 0.003,-0.005 0.002,-0.005 -0.003,-0.003 -0.0114,0.007 -0.009,-0.006 0.003,-0.0156 0.009,-0.007 0.01,-0.007 0.006,1.5e-4 -0.004,0.006 -0.003,0.007 0.002,0.004 0.004,-0.003 0.006,-0.007 0.004,-0.0101 -0.004,-0.005 0.0321,-0.0614 0.0389,-0.0614 0.002,0 0.002,0.003 -8.1e-4,0.007 -0.002,0.004 -0.002,0.005 0.002,0.003 0.004,-0.002 0.006,-0.008 0.004,-0.0118 -8.1e-4,-0.004 0.004,-0.0159 0.0134,-0.0261 0.009,-0.0102 0.0142,-0.0146 0.0117,-0.01 -0.003,0.006 -0.002,0.007 0.002,0.004 0.004,-0.002 0.006,-0.008 0.004,-0.0116 -8e-4,-0.004 0.004,-0.0159 0.0134,-0.0261 0.009,-0.0102 0.0142,-0.0147 0.0116,-0.01 -0.003,0.006 -0.002,0.007 0.003,0.004 0.004,-0.002 0.006,-0.007 0.004,-0.0103 -0.003,-0.005 0.0703,-0.1108 0.0771,-0.1108 8.1e-4,0 6.1e-4,0.004 -0.002,0.008 -0.003,0.005 -0.002,0.005 0.006,-7.9e-4 0.0116,-0.009 0.0146,-0.0163 0.004,-0.0101 -0.0107,0.006 -0.007,-0.007 0.004,-0.0162 0.009,-0.007 0.01,-0.007 0.005,7.9e-4 -0.005,0.008 -0.004,0.008 0.005,7.9e-4 0.0116,-0.009 0.0146,-0.0162 0.004,-0.01 -0.0107,0.006 -0.007,-0.007 0.004,-0.0162 0.009,-0.007 0.01,-0.007 0.005,7.9e-4 -0.005,0.008 -0.004,0.008 0.005,7.9e-4 0.0116,-0.009 0.0146,-0.0162 0.004,-0.01 -0.0107,0.006 -0.007,-0.007 0.004,-0.0162 0.009,-0.007 0.01,-0.007 0.005,7.9e-4 -0.005,0.008 -0.004,0.008 0.006,7.9e-4 0.0116,-0.009 0.0146,-0.0162 0.004,-0.01 -0.0107,0.006 -0.007,-0.007 0.004,-0.0163 0.009,-0.007 0.01,-0.007 0.005,7.9e-4 -0.005,0.008 -0.004,0.008 0.006,7.9e-4 0.0116,-0.009 0.0146,-0.0162 0.004,-0.01 -0.0123,0.007 -0.006,-0.008 0.008,-0.0192 0.014,-0.0117 0.0142,-0.0116 0.005,5.9e-4 -0.009,0.0113 -0.009,0.0117 0.002,0.004 0.006,-0.004 0.01,-0.0115 0.008,-0.0155 -8.1e-4,-0.004 0.006,-0.0169 0.0167,-0.0288 0.0107,-0.0119 0.0172,-0.0175 0.0145,-0.0124 -0.004,0.008 -0.004,0.008 0.006,7.9e-4 0.0116,-0.009 0.0146,-0.0162 0.004,-0.01 -0.0122,0.007 -0.006,-0.008 0.008,-0.0192 0.0139,-0.0116 0.014,-0.0116 0.005,6e-4 -0.009,0.0122 -0.009,0.0122 0.005,5.9e-4 0.0145,-0.0121 0.019,-0.0199 0.008,-0.013 -0.0123,0.007 -0.006,-0.008 0.008,-0.0192 0.0139,-0.0117 0.014,-0.0116 0.005,5.9e-4 -0.009,0.0122 -0.009,0.0123 0.005,6e-4 0.0145,-0.0121 0.0191,-0.0197 0.008,-0.0129 -0.0123,0.007 -0.006,-0.008 0.008,-0.0192 0.014,-0.0117 0.014,-0.0116 0.005,6e-4 -0.009,0.0122 -0.009,0.0121 0.005,4.7e-4 0.0145,-0.0121 0.019,-0.0197 0.008,-0.0129 -0.0107,0.006 -0.007,-0.007 0.004,-0.0163 0.009,-0.007 0.01,-0.007 0.006,7.7e-4 -0.005,0.008 -0.004,0.008 0.005,8.9e-4 0.0116,-0.009 0.0146,-0.0163 0.004,-0.0101 -0.0146,0.009 -0.004,-0.008 0.0232,-0.0371 0.0159,-0.017 0.0251,-0.0254 0.0204,-0.0186 -0.009,0.0122 -0.008,0.0122 0.006,5.9e-4 0.0145,-0.012 0.0191,-0.0198 0.008,-0.013 -0.0158,0.01 -0.002,-0.01 0.0718,-0.0944 0.0715,-0.083 0.14497,-0.16323 0.11477,-0.1252 -0.009,0.0109 -0.006,0.009 0.011,-0.006 0.023,-0.0207 0.0333,-0.0343 0.0142,-0.0189 -0.0216,0.0176 -0.007,-0.005 0.0172,-0.028 0.0191,-0.0174 0.0223,-0.0192 0.0111,-0.006 -0.0142,0.0168 -0.0135,0.0166 0.008,-0.003 0.023,-0.0207 0.0332,-0.0343 0.0142,-0.0189 -0.006,0.004 -0.009,0.005 -0.009,0.002 0,-0.003 0.0149,-0.0195 0.0331,-0.0363 0.0278,-0.0257 0.0297,-0.0267 0.0111,-0.006 -0.022,0.0247 -0.0222,0.0248 0.008,-0.003 0.0282,-0.0259 0.0414,-0.0419 0.0206,-0.025 -0.006,0.004 -0.009,0.005 -0.009,0.002 0,-0.01 0.27716,-0.28439 0.37993,-0.37654 0.10413,-0.0934 0.22323,-0.19387 0.22988,-0.19387 0.002,0 0.002,0.003 -6.1e-4,0.008 -0.002,0.004 8.1e-4,0.002 0.009,-0.004 0.0163,-0.014 0.0184,-0.0211 0.003,-0.009 -0.009,0.007 -0.009,0.006 0.002,-0.005 0.0128,-0.0146 0.0265,-0.0192 0.0189,-0.006 -0.002,0.004 8.1e-4,0.002 0.009,-0.004 0.0164,-0.014 0.0184,-0.0211 0.003,-0.009 -0.009,0.007 -0.009,0.006 6.1e-4,-0.006 0.0128,-0.0146 0.0269,-0.0191 0.0189,-0.006 -0.003,0.005 -0.002,0.005 0.006,-7.7e-4 0.0125,-0.01 0.0141,-0.0157 0.003,-0.01 -0.004,0.002 0.002,-0.004 0.0142,-0.0149 0.0122,-0.0104 0.0256,-0.0177 0.0298,-0.0163 0.004,10e-4 0.01,-3.5e-4 0.0121,-0.004 0.003,-0.005 8e-4,-0.005 -0.004,-0.002 -0.007,0.004 -0.008,0.004 -3e-4,-0.005 0.01,-0.0121 0.0229,-0.0143 0.0159,-0.003 -0.003,0.005 -8.1e-4,0.005 0.006,-7.7e-4 0.0125,-0.01 0.014,-0.0155 0.003,-0.01 -0.004,0.002 6.1e-4,-0.003 0.0111,-0.012 0.0104,-0.009 0.0224,-0.0147 0.0266,-0.0132 0.004,0.002 0.01,-2.1e-4 0.0121,-0.004 0.003,-0.005 0.002,-0.005 -0.004,-0.002 -0.007,0.004 -0.007,0.004 -1.7e-4,-0.005 0.01,-0.0121 0.0228,-0.0143 0.0159,-0.003 -0.002,0.005 -0.002,0.006 0.002,0.003 0.003,-0.003 0.006,-0.008 0.006,-0.0118 0,-0.004 0.004,-0.008 0.009,-0.01 0.006,-0.002 0.007,-1.6e-4 0.004,0.006 -0.003,0.005 -0.003,0.006 6.1e-4,0.003 0.003,-0.003 0.006,-0.008 0.006,-0.012 0,-0.004 0.004,-0.008 0.009,-0.01 0.006,-0.002 0.007,-1.6e-4 0.004,0.006 -0.003,0.005 -0.003,0.006 6e-4,0.003 0.003,-0.003 0.006,-0.008 0.006,-0.0118 0,-0.004 0.004,-0.008 0.009,-0.01 0.006,-0.002 0.007,-1.7e-4 0.004,0.006 -0.003,0.005 -0.003,0.006 6.1e-4,0.003 0.003,-0.003 0.006,-0.008 0.006,-0.0118 0,-0.004 0.004,-0.008 0.009,-0.01 0.006,-0.002 0.007,-2.3e-4 0.004,0.005 -0.003,0.005 -0.002,0.006 0.002,0.003 0.004,-0.002 0.006,-0.007 0.003,-0.01 -0.005,-0.007 0.0208,-0.0201 0.0297,-0.0147 0.004,0.002 0.006,0.002 0.003,-0.002 -0.006,-0.008 0.0506,-0.0408 0.0602,-0.0349 0.004,0.003 0.006,0.002 0.003,-0.002 -0.006,-0.008 0.0316,-0.0283 0.0416,-0.0222 0.004,0.003 0.006,0.002 0.002,-0.003 -0.006,-0.009 0.20802,-0.11199 0.30043,-0.14528 0.14724,-0.053 0.261,-0.0773 0.38495,-0.0821 0.0713,-0.003 0.10407,-10e-4 0.14756,0.007 0.0612,0.0113 0.12614,0.0327 0.12152,0.04 -0.002,0.003 0.003,0.004 0.011,0.004 0.008,-2.8e-4 0.0133,0.003 0.0123,0.008 -6.1e-4,0.005 8.1e-4,0.006 0.005,0.004 0.007,-0.004 0.0414,0.0116 0.0483,0.0224 0.003,0.005 0.002,0.005 -0.004,0.002 -0.006,-0.003 -0.006,-0.002 -0.004,0.002 0.002,0.004 0.007,0.006 0.0108,0.004 0.007,-0.004 0.0751,0.0506 0.0751,0.0608 0,0.004 -0.0163,-0.008 -0.0364,-0.0267 -0.0344,-0.0319 -0.0341,-0.0314 0.004,0.008 0.0396,0.0404 0.0551,0.053 0.0376,0.0308 -0.007,-0.009 -0.006,-0.009 0.006,8.9e-4 0.015,0.0125 0.0197,0.0262 0.006,0.0184 -0.006,-0.003 -0.005,-10e-4 6.1e-4,0.006 0.0101,0.0122 0.0163,0.0139 0.009,0.003 -0.004,-0.006 -0.002,-0.005 0.006,6e-4 0.0172,0.0136 0.0726,0.13001 0.0895,0.18804 0.024,0.0818 0.0358,0.15874 0.0329,0.21287 -0.002,0.0322 -0.002,0.0388 0.002,0.0202 0.002,-0.0153 0.004,0.0389 0.004,0.12046 -6e-5,0.085 -0.002,0.13122 -0.004,0.10819 -0.003,-0.025 -0.004,-0.007 -0.002,0.0494 0.002,0.0601 2e-5,0.0794 -0.003,0.0587 -0.004,-0.0238 -0.004,-0.0187 -0.002,0.0224 0.004,0.0723 -0.006,0.20528 -0.0111,0.16612 -0.002,-0.0171 -0.003,-0.01 -8.1e-4,0.0193 8.1e-4,0.0259 3e-4,0.0758 -0.002,0.11111 -0.004,0.0547 -0.006,0.06 -0.009,0.0363 -0.002,-0.0169 -0.003,-0.01 -0.002,0.0185 0.004,0.0605 -0.0247,0.40189 -0.0303,0.36765 -0.002,-0.0154 -0.003,-0.009 -8.1e-4,0.0155 0.003,0.0578 -0.0119,0.22749 -0.0177,0.19463 -0.003,-0.0165 -0.004,-0.0114 -0.002,0.0152 0.002,0.0219 6.1e-4,0.0622 -0.002,0.0895 -0.004,0.0453 -0.005,0.0475 -0.009,0.025 -0.003,-0.0169 -0.004,-0.0119 -0.002,0.0155 0.004,0.0544 -0.011,0.20327 -0.0174,0.17302 -0.003,-0.0138 -0.004,-0.008 -8.1e-4,0.0159 0.006,0.0642 -0.0467,0.46801 -0.0742,0.57715 -0.0195,0.0775 -0.0527,0.16695 -0.0916,0.24704 -0.0426,0.0878 -0.0902,0.16792 -0.0972,0.16368 -0.003,-0.002 -0.007,1.6e-4 -0.01,0.004 -0.003,0.005 -0.002,0.005 0.004,0.002 0.006,-0.003 0.007,-0.002 0.006,0.004 -0.002,0.005 -0.006,0.009 -0.01,0.009 -0.004,0 -0.009,0.003 -0.0121,0.006 -0.003,0.003 -0.002,0.004 0.004,6e-4 0.006,-0.003 0.008,-0.002 0.006,0.004 -0.002,0.005 -0.006,0.009 -0.01,0.009 -0.004,0 -0.009,0.003 -0.0121,0.006 -0.003,0.003 -0.002,0.004 0.003,10e-4 0.0118,-0.007 0.01,0.006 -0.003,0.0156 -0.007,0.006 -0.009,0.006 -0.006,7.8e-4 0.007,-0.0113 6e-4,-0.009 -0.009,0.003 -0.006,0.007 -0.006,0.009 -8.1e-4,0.006 0.0134,-0.008 0.009,0.006 -0.006,0.0182 -0.0139,0.0116 -0.014,0.0116 -0.005,-5.9e-4 0.009,-0.0122 0.009,-0.0123 -0.005,-6e-4 -0.0145,0.0121 -0.0192,0.0199 -0.008,0.013 0.0123,-0.007 0.006,0.008 -0.008,0.0192 -0.014,0.0117 -0.0141,0.0116 -0.005,-5.9e-4 0.006,-0.009 0.005,-0.009 -0.008,0.003 -0.0179,0.0156 -0.0243,0.0263 -0.007,0.0129 0.006,-0.004 0.009,-0.005 0.009,-0.002 0,0.007 -0.14692,0.1505 -0.15413,0.1505 -0.003,0 -0.002,-0.005 0.003,-0.0107 0.005,-0.006 6e-4,-0.004 -0.009,0.004 -0.0191,0.0166 -0.0234,0.0252 -0.006,0.0121 0.009,-0.007 0.009,-0.006 -0.002,0.005 -0.0128,0.0146 -0.0265,0.0192 -0.0189,0.006 0.002,-0.004 -8.1e-4,-0.003 -0.009,0.004 -0.0164,0.014 -0.0184,0.0211 -0.003,0.009 0.009,-0.007 0.009,-0.006 -6e-4,0.006 -0.0128,0.0146 -0.0269,0.019 -0.0189,0.006 0.003,-0.005 0.002,-0.005 -0.006,7.9e-4 -0.0116,0.009 -0.0146,0.0163 -0.004,0.0101 0.004,-0.002 0.006,-0.002 0.006,-1.6e-4 0,0.008 -0.13617,0.0897 -0.14411,0.0867 -0.005,-0.002 -0.006,-3.5e-4 -0.004,0.003 0.005,0.008 -0.13448,0.076 -0.14629,0.0716 -0.005,-0.002 -0.007,-0.001 -0.006,0.002 0.004,0.006 -0.0238,0.0181 -0.12231,0.051 -0.18648,0.0624 -0.40566,0.10021 -0.55368,0.0956 -0.0566,-0.002 -0.0639,-0.001 -0.0286,0.002 0.0301,0.003 -0.0104,0.004 -0.1107,0.004 -0.0934,0 -0.13728,-0.002 -0.1074,-0.004 l 0.0506,-0.004 -0.0475,-4.7e-4 c -0.0261,-2.3e-4 -0.0659,10e-4 -0.0884,0.004 -0.0382,0.004 -0.0396,0.005 -0.0198,0.009 0.0159,0.004 0.0193,0.006 0.0127,0.0107 -0.006,0.004 -0.003,0.004 0.008,0.002 0.0432,-0.01 0.5199,0.14499 0.50741,0.16474 -0.002,0.003 6.1e-4,0.004 0.006,0.002 0.013,-0.005 0.12593,0.0517 0.12043,0.0604 -0.003,0.004 -8.1e-4,0.005 0.003,0.003 0.0101,-0.006 0.0596,0.0198 0.0542,0.0284 -0.003,0.004 -0.002,0.005 0.003,0.002 0.007,-0.004 0.12253,0.0648 0.13141,0.0788 0.002,0.003 6e-4,0.004 -0.004,0.002 -0.0111,-0.007 -0.009,-1.1e-4 0.004,0.01 0.007,0.006 0.009,0.006 0.006,7.9e-4 -0.007,-0.0116 0.006,-0.009 0.0159,0.003 0.006,0.007 0.006,0.009 0.002,0.006 -0.0116,-0.007 -0.01,-6.6e-4 0.003,0.009 0.007,0.006 0.009,0.006 0.006,7.9e-4 -0.009,-0.0143 0.006,-0.008 0.0218,0.009 l 0.0142,0.0161 c 3e-4,-10e-4 0.002,-0.002 0.003,-0.002 0.008,0 0.15274,0.14769 0.15274,0.15555 0,0.003 -0.003,0.004 -0.006,0.002 -0.0103,-0.006 -0.007,9.7e-4 0.004,0.0101 0.009,0.007 0.01,0.007 0.006,-8.9e-4 -0.005,-0.008 -0.004,-0.008 0.005,-7.9e-4 0.0124,0.01 0.0146,0.0223 0.003,0.0156 -0.005,-0.003 -0.006,-0.002 -0.003,10e-4 0.003,0.003 0.008,0.006 0.0123,0.006 0.004,0 0.008,0.004 0.01,0.009 0.002,0.006 2.3e-4,0.007 -0.005,0.004 -0.006,-0.003 -0.006,-0.002 -0.004,0.002 0.002,0.004 0.007,0.006 0.0102,0.004 0.0132,-0.008 0.0862,0.14274 0.10804,0.22299 0.0191,0.0702 0.0216,0.25177 0.005,0.33715 -0.0224,0.11326 -0.0765,0.24058 -0.15492,0.36459 -0.0191,0.0302 -0.0371,0.0533 -0.0401,0.0515 -0.003,-0.002 -0.007,10e-6 -0.01,0.004 -0.003,0.004 -0.002,0.005 0.003,0.003 0.004,-0.002 0.007,-0.003 0.007,-5.9e-4 0,0.005 -0.0758,0.10206 -0.0801,0.10206 -0.002,0 3.1e-4,-0.005 0.005,-0.0109 0.007,-0.009 0.006,-0.009 -0.006,8.9e-4 -0.0145,0.0121 -0.019,0.0199 -0.008,0.013 0.0168,-0.0101 0.002,0.0101 -0.0333,0.0467 -0.0218,0.0223 -0.031,0.0307 -0.0206,0.0185 0.0159,-0.0186 0.0142,-0.0177 -0.0111,0.006 -0.0282,0.0259 -0.0414,0.0418 -0.0206,0.025 0.006,-0.004 0.01,-0.005 0.01,-0.002 0,0.0136 -0.30412,0.29195 -0.31893,0.29195 -0.002,0 -0.002,-0.003 3e-4,-0.008 0.002,-0.004 -8.1e-4,-0.003 -0.009,0.004 -0.0164,0.0141 -0.0181,0.0207 -0.002,0.01 0.006,-0.004 -3e-4,0.002 -0.0142,0.0145 -0.0139,0.0122 -0.0287,0.0211 -0.0328,0.0196 -0.004,-10e-4 -0.0113,0.002 -0.0159,0.008 -0.008,0.01 -0.007,0.01 0.004,10e-4 0.006,-0.005 0.0104,-0.006 0.008,-0.002 -0.0127,0.0207 -0.21129,0.14588 -0.22392,0.14114 -0.005,-0.002 -0.006,-4.4e-4 -0.004,0.003 0.006,0.008 -0.13307,0.0726 -0.21733,0.10114 -0.18832,0.0638 -0.3825,0.0694 -0.55319,0.0159 -0.0337,-0.0106 -0.0597,-0.0218 -0.0577,-0.025 0.002,-0.003 -6.1e-4,-0.004 -0.006,-0.002 -0.0176,0.007 -0.21349,-0.10306 -0.22893,-0.12812 -0.004,-0.006 -0.002,-0.006 0.007,9.7e-4 0.0113,0.009 0.0116,0.009 0.003,-0.001 -0.005,-0.006 -0.0118,-0.009 -0.0161,-0.008 -0.004,0.002 -0.0134,-0.003 -0.0201,-0.0112 l -0.0113,-0.0129 c -3e-4,10e-4 -0.002,0.002 -0.003,0.002 -0.008,0 -0.19068,-0.18419 -0.19068,-0.19218 0,-0.003 0.004,-0.004 0.008,-0.002 0.004,0.003 0.002,-0.002 -0.004,-0.009 -0.0144,-0.016 -0.0217,-0.018 -0.009,-0.003 0.007,0.009 0.006,0.009 -0.006,-9.8e-4 -0.0139,-0.0116 -0.0201,-0.0265 -0.008,-0.0192 0.0103,0.006 0.007,-8.1e-4 -0.004,-0.01 -0.009,-0.007 -0.01,-0.007 -0.005,7.9e-4 0.005,0.008 0.004,0.008 -0.005,7.9e-4 -0.0113,-0.009 -0.0151,-0.0227 -0.004,-0.0163 0.0104,0.006 0.007,-8.9e-4 -0.004,-0.01 -0.009,-0.007 -0.01,-0.007 -0.005,7.9e-4 0.005,0.008 0.004,0.008 -0.006,7.9e-4 -0.0114,-0.009 -0.0151,-0.0227 -0.004,-0.0163 0.0103,0.006 0.007,-7.8e-4 -0.004,-0.01 -0.009,-0.007 -0.01,-0.007 -0.005,7.9e-4 0.005,0.008 0.004,0.008 -0.006,7.8e-4 -0.012,-0.009 -0.0146,-0.0225 -0.003,-0.0156 0.004,0.003 0.006,0.002 0.003,-0.003 -0.002,-0.004 -0.006,-0.006 -0.01,-0.004 -0.0103,0.006 -0.13005,-0.18428 -0.12293,-0.19555 0.003,-0.004 0.002,-0.005 -0.003,-0.003 -0.009,0.005 -0.0415,-0.0554 -0.0353,-0.0653 0.002,-0.005 0.002,-0.005 -0.004,-0.002 -0.006,0.004 -0.007,0.002 -0.004,-0.006 0.002,-0.006 0.002,-0.009 -0.002,-0.007 -0.008,0.005 -0.0715,-0.11919 -0.0669,-0.13073 0.002,-0.005 8e-4,-0.007 -0.002,-0.006 -0.0133,0.008 -0.11687,-0.23937 -0.21561,-0.51493 -0.0202,-0.0563 -0.039,-0.10767 -0.0417,-0.11417 -0.004,-0.009 -0.003,-0.0108 0.004,-0.007 0.006,0.003 0.004,2.4e-4 -0.002,-0.006 -0.0108,-0.0112 -0.0113,-0.0112 -0.0222,0 -0.006,0.007 -0.007,0.009 -0.002,0.006 0.007,-0.004 0.008,-0.002 0.004,0.007 -0.003,0.006 -0.0271,0.073 -0.054,0.14773 -0.0855,0.23677 -0.15597,0.40663 -0.16621,0.40045 -0.004,-0.002 -0.005,-7.9e-4 -0.002,0.004 0.006,0.009 -0.0278,0.0817 -0.0356,0.0769 -0.003,-0.002 -0.004,7.9e-4 -0.002,0.006 0.004,0.0115 -0.059,0.13555 -0.0669,0.13073 -0.004,-0.002 -0.004,7.9e-4 -0.002,0.007 0.003,0.008 0.002,0.009 -0.004,0.006 -0.006,-0.003 -0.007,-0.003 -0.004,0.002 0.006,0.01 -0.0264,0.0706 -0.0351,0.0653 -0.004,-0.003 -0.006,-0.002 -0.003,0.003 0.007,0.0113 -0.11248,0.20177 -0.12278,0.19555 -0.003,-0.002 -0.007,1.6e-4 -0.01,0.004 -0.002,0.005 -0.002,0.005 0.003,0.003 0.0114,-0.007 0.008,0.006 -0.004,0.0156 -0.009,0.007 -0.01,0.007 -0.005,-7.8e-4 0.005,-0.008 0.004,-0.008 -0.005,-7.9e-4 -0.0116,0.009 -0.0146,0.0162 -0.004,0.01 0.0107,-0.006 0.007,0.007 -0.004,0.0163 -0.009,0.007 -0.01,0.007 -0.005,-7.9e-4 0.005,-0.008 0.004,-0.008 -0.006,-7.9e-4 -0.0116,0.009 -0.0146,0.0162 -0.004,0.01 0.0107,-0.006 0.007,0.007 -0.004,0.0163 -0.009,0.007 -0.01,0.007 -0.005,-7.9e-4 0.005,-0.008 0.004,-0.008 -0.006,-7.9e-4 -0.0116,0.009 -0.0145,0.0162 -0.004,0.01 0.0123,-0.007 0.006,0.008 -0.008,0.0192 -0.0139,0.0117 -0.014,0.0116 -0.005,-5.9e-4 0.009,-0.0122 0.009,-0.0123 -0.005,-6e-4 -0.0145,0.0121 -0.0191,0.0199 -0.008,0.013 0.004,-0.002 0.006,-9.7e-4 0.006,0.002 0,0.008 -0.18274,0.19218 -0.19068,0.19218 -8.1e-4,0 -0.003,-8.9e-4 -0.003,-0.002 l -0.0116,0.0133 c -0.006,0.008 -0.0157,0.0128 -0.0201,0.0112 -0.004,-0.002 -0.0116,0.002 -0.0161,0.008 -0.007,0.01 -0.007,0.01 0.004,0.002 0.007,-0.005 0.003,2.5e-4 -0.009,0.0109 -0.0121,0.0106 -0.0255,0.018 -0.0298,0.0164 -0.004,-0.002 -0.01,2.1e-4 -0.0121,0.004 -0.003,0.004 -0.002,0.005 0.003,0.002 0.004,-0.002 0.007,-0.003 0.007,-10e-4 0,0.006 -0.0673,0.0457 -0.1209,0.072 -0.11787,0.0579 -0.24779,0.0871 -0.37851,0.0849 l -0.0727,-10e-4 0.079,-0.004 0.002,-1.5e-4 c 0.0788,-0.004 0.0787,-0.004 -0.0222,-0.003 -0.11648,10e-4 -0.17605,-0.008 -0.28225,-0.0438 -0.0849,-0.0288 -0.20978,-0.0867 -0.20462,-0.0949 0.002,-0.003 1.7e-4,-0.005 -0.004,-0.003 -0.0135,0.005 -0.22307,-0.12533 -0.23645,-0.14712 -0.002,-0.004 6.1e-4,-0.004 0.008,0.002 0.0113,0.009 0.0116,0.008 0.004,-10e-4 -0.005,-0.006 -0.0118,-0.009 -0.0159,-0.008 -0.004,0.001 -0.0189,-0.007 -0.0328,-0.0196 -0.0139,-0.0122 -0.0197,-0.0185 -0.0127,-0.014 0.0125,0.008 0.0125,0.008 6.1e-4,-0.005 -0.0124,-0.0141 -0.0201,-0.0187 -0.0132,-0.008 0.01,0.0156 -0.01,0.002 -0.0687,-0.0478 -0.0791,-0.0668 -0.25056,-0.22971 -0.25056,-0.238 0,-0.003 0.005,-0.002 0.011,0.002 0.006,0.004 -6e-5,-0.004 -0.0138,-0.0178 -0.0293,-0.0304 -0.0398,-0.0354 -0.0127,-0.006 0.0134,0.0145 0.0111,0.0134 -0.008,-0.004 -0.0254,-0.0232 -0.0358,-0.0401 -0.0189,-0.0305 0.004,0.002 6.1e-4,-0.003 -0.007,-0.0121 -0.0186,-0.0199 -0.0262,-0.0219 -0.009,-0.003 0.0108,0.0125 0.0104,0.0124 -0.006,-10e-4 -0.0176,-0.0152 -0.0239,-0.0298 -0.009,-0.0215 0.004,0.003 0.002,-10e-4 -0.004,-0.009 -0.0134,-0.015 -0.0225,-0.0187 -0.0102,-0.004 0.004,0.005 0.006,0.009 0.004,0.009 -0.004,0 -0.0799,-0.0964 -0.0799,-0.10191 0,-0.002 0.003,-0.002 0.007,5.9e-4 0.004,0.003 0.006,0.002 0.003,-0.003 -0.002,-0.004 -0.006,-0.006 -0.01,-0.004 -0.0123,0.007 -0.1185,-0.18019 -0.15398,-0.27202 -0.0284,-0.0734 -0.0488,-0.16213 -0.0455,-0.19708 0.002,-0.0224 0.002,-0.0261 -0.002,-0.0129 -0.004,0.0145 -0.006,0.005 -0.01,-0.0423 -0.01,-0.11482 0.015,-0.24346 0.0667,-0.34972 0.033,-0.0679 0.0685,-0.12488 0.0752,-0.12077 0.003,0.002 0.007,0 0.01,-0.004 0.003,-0.004 0.002,-0.005 -0.003,-0.003 -0.0114,0.007 -0.009,-0.006 0.003,-0.0156 0.007,-0.006 0.009,-0.006 0.006,-7.9e-4 -0.007,0.0113 -6.1e-4,0.009 0.009,-0.003 0.006,-0.007 0.006,-0.009 0.002,-0.006 -0.0134,0.008 -0.009,-0.006 0.006,-0.0182 0.014,-0.0116 0.0139,-0.0116 0.005,5.9e-4 -0.006,0.009 -0.005,0.009 0.008,-0.003 0.0178,-0.0156 0.0244,-0.0263 0.008,-0.0129 -0.006,0.004 -0.01,0.005 -0.01,0.002 0,-0.007 0.12164,-0.12567 0.12857,-0.12567 0.003,0 0.003,0.003 3.1e-4,0.008 -0.002,0.004 0.003,10e-4 0.0123,-0.007 0.0205,-0.0182 0.0225,-0.0256 0.003,-0.009 -0.0128,0.0106 -0.0127,0.01 8.1e-4,-0.005 0.0146,-0.0161 0.0309,-0.0238 0.0226,-0.0107 -0.006,0.0101 8.1e-4,0.007 0.0103,-0.004 0.007,-0.009 0.007,-0.01 -6e-4,-0.005 -0.008,0.005 -0.008,0.004 -0.002,-0.005 0.009,-0.0111 0.0232,-0.0146 0.0167,-0.004 -0.006,0.0101 8.1e-4,0.007 0.0103,-0.004 0.007,-0.009 0.007,-0.01 -3e-4,-0.005 -0.006,0.003 -0.007,0.003 -0.005,-8.9e-4 0.009,-0.014 0.12433,-0.0832 0.13156,-0.0788 0.005,0.003 0.006,0.002 0.003,-0.002 -0.006,-0.009 0.044,-0.0344 0.0541,-0.0284 0.004,0.003 0.006,0.002 0.003,-0.003 -0.006,-0.009 0.10736,-0.0653 0.12043,-0.0604 0.005,0.002 0.007,8.9e-4 0.006,-0.002 -0.0108,-0.017 0.40052,-0.15487 0.46852,-0.15709 0.0145,-4.7e-4 0.0236,-0.003 0.0205,-0.004 -0.003,-0.002 0.009,-0.007 0.0274,-0.0121 l 0.0333,-0.009 -0.0411,-0.004 c -0.0226,-0.002 -0.0625,-0.004 -0.0886,-0.004 l -0.0473,4.7e-4 0.0505,0.004 c 0.0299,0.002 -0.0141,0.004 -0.10742,0.004 -0.10025,0 -0.14077,-0.002 -0.1107,-0.004 0.0354,-0.003 0.0283,-0.004 -0.0283,-0.002 -0.15275,0.005 -0.36993,-0.0337 -0.56652,-0.10023 -0.0925,-0.0313 -0.2676,-0.11038 -0.26249,-0.11846 0.002,-0.003 -0.002,-0.005 -0.007,-0.005 -0.0145,-6e-5 -0.11574,-0.0642 -0.11164,-0.0707 0.002,-0.003 -3e-5,-0.007 -0.004,-0.01 -0.005,-0.003 -0.006,-0.002 -0.003,0.003 0.007,0.0111 -0.006,0.008 -0.0159,-0.003 -0.006,-0.007 -0.006,-0.009 -0.002,-0.006 0.0116,0.007 0.01,5.3e-4 -0.003,-0.009 -0.007,-0.006 -0.009,-0.006 -0.006,-7.9e-4 0.008,0.0131 -0.006,0.009 -0.0187,-0.006 -0.012,-0.0137 -0.0119,-0.0137 6e-4,-0.005 0.0125,0.009 0.0126,0.009 6.1e-4,-0.005 -0.0124,-0.0141 -0.0203,-0.0187 -0.0134,-0.008 0.007,0.0119 -0.008,0.006 -0.0196,-0.008 -0.0119,-0.0136 -0.0119,-0.0136 6.1e-4,-0.005 0.009,0.007 0.009,0.005 -0.003,-0.008 -0.0159,-0.0175 -0.0269,-0.0238 -0.0132,-0.008 0.004,0.005 0.006,0.009 0.002,0.009 -0.007,0 -0.15414,-0.14346 -0.15414,-0.1505 0,-0.003 0.005,-0.002 0.011,0.003 0.006,0.005 0.004,7.2e-4 -0.004,-0.009 -0.0171,-0.0187 -0.0258,-0.0229 -0.0124,-0.006 0.007,0.009 0.006,0.009 -0.006,-9.7e-4 -0.015,-0.0125 -0.0196,-0.026 -0.006,-0.0184 0.004,0.003 0.002,-0.002 -0.004,-0.009 -0.0144,-0.016 -0.0217,-0.018 -0.009,-0.003 0.007,0.009 0.006,0.009 -0.006,-8.9e-4 -0.0139,-0.0116 -0.0199,-0.0265 -0.008,-0.0192 0.0103,0.006 0.007,-7.9e-4 -0.004,-0.01 -0.009,-0.007 -0.01,-0.007 -0.006,7.9e-4 0.005,0.008 0.004,0.008 -0.005,7.9e-4 -0.012,-0.009 -0.0149,-0.0225 -0.003,-0.0156 0.004,0.003 0.006,0.002 0.003,-0.003 -0.002,-0.004 -0.006,-0.006 -0.01,-0.004 -0.008,0.005 -0.0718,-0.0987 -0.11744,-0.19034 -0.0696,-0.13965 -0.12828,-0.34421 -0.11995,-0.41823 0.002,-0.0183 0.002,-0.0226 -0.002,-0.0124 -0.006,0.0216 -0.0338,-0.19011 -0.0299,-0.23478 0.002,-0.024 8.1e-4,-0.0275 -0.002,-0.0123 -0.006,0.0248 -0.002,0.0527 -0.0328,-0.24413 -0.0114,-0.10908 -0.018,-0.20305 -0.0163,-0.2285 0.002,-0.0343 0.002,-0.0382 -0.002,-0.0185 -0.004,0.0185 -0.005,0.01 -0.003,-0.034 8.1e-4,-0.0335 2.1e-4,-0.0481 -0.002,-0.034 -0.003,0.0215 -0.005,0.0178 -0.009,-0.0293 -0.002,-0.0298 -0.004,-0.0729 -0.002,-0.0958 0.002,-0.033 0.002,-0.0366 -0.003,-0.017 -0.003,0.017 -0.004,0.004 -0.003,-0.0402 0.002,-0.0473 6.1e-4,-0.0574 -0.003,-0.0371 -0.004,0.0203 -0.005,0.0102 -0.003,-0.0371 8.1e-4,-0.0473 6.1e-4,-0.0574 -0.003,-0.0371 -0.004,0.0203 -0.005,0.0102 -0.003,-0.0371 8.1e-4,-0.0369 3e-4,-0.0528 -0.002,-0.0369 -0.003,0.0245 -0.005,0.0204 -0.009,-0.0333 -0.003,-0.0336 -0.004,-0.0809 -0.002,-0.10513 0.002,-0.0257 0.002,-0.0336 -8.1e-4,-0.0192 -0.006,0.0335 -0.0147,-0.089 -0.0111,-0.14896 0.002,-0.0331 0.002,-0.0371 -0.002,-0.0179 -0.004,0.0162 -0.004,-0.002 -0.003,-0.0526 0.002,-0.0566 6.1e-4,-0.0681 -0.003,-0.0432 -0.004,0.0244 -0.005,0.0106 -0.003,-0.0494 0.002,-0.0584 2.6e-4,-0.0733 -0.003,-0.0495 -0.004,0.0235 -0.004,0.006 -0.003,-0.0556 0.002,-0.0603 1e-4,-0.0764 -0.003,-0.0494 -0.002,0.0221 -0.003,-0.0364 -0.003,-0.1298 8.1e-4,-0.12658 0.004,-0.18373 0.012,-0.22406 0.0254,-0.13198 0.0704,-0.24031 0.13186,-0.31692 0.037,-0.046 0.083,-0.0859 0.0925,-0.0802 0.003,0.002 0.008,3e-4 0.0105,-0.004 0.003,-0.005 0.002,-0.006 -0.004,-0.003 -0.005,0.002 -0.002,-10e-4 0.006,-0.009 0.008,-0.007 0.0192,-0.0116 0.024,-0.01 0.005,0.002 0.007,7.1e-4 0.006,-0.002 -0.005,-0.008 0.0206,-0.0206 0.0323,-0.0163 0.005,0.002 0.008,9.5e-4 0.006,-0.002 -0.002,-0.003 0.0118,-0.0114 0.0306,-0.0182 0.0632,-0.0231 0.14068,-0.0333 0.22689,-0.0308 z m -0.0655,0.006 c -0.006,0 -0.0141,2.4e-4 -0.0198,9.5e-4 -0.0113,0.001 -0.004,0.003 0.0174,0.003 0.0209,4e-5 0.03,-10e-4 0.0205,-0.002 -0.005,-7.1e-4 -0.0113,-0.001 -0.0182,-0.001 z m 0.0947,0 c -0.006,0 -0.0139,2.4e-4 -0.0196,9.5e-4 -0.0113,0.001 -0.004,0.003 0.0172,0.003 0.0209,4e-5 0.0303,-10e-4 0.0207,-0.002 -0.005,-7.1e-4 -0.0115,-0.001 -0.0184,-0.001 z m 6.12565,0 c -0.006,0 -0.0141,2.4e-4 -0.0198,9.5e-4 -0.0113,0.001 -0.004,0.003 0.0172,0.003 0.0209,4e-5 0.0303,-10e-4 0.0207,-0.002 -0.005,-7.1e-4 -0.0113,-0.001 -0.0181,-0.001 z m 0.0947,0 c -0.006,0 -0.0139,2.4e-4 -0.0196,9.5e-4 -0.0113,0.001 -0.003,0.003 0.0172,0.003 0.0209,4e-5 0.0302,-10e-4 0.0207,-0.002 -0.005,-7.1e-4 -0.0115,-0.001 -0.0184,-0.001 z m -6.37747,0.006 c -0.003,0 -0.006,3.6e-4 -0.008,10e-4 -0.004,0.002 -8.1e-4,0.003 0.008,0.003 0.009,0 0.0124,-10e-4 0.008,-0.003 -0.002,-8.3e-4 -0.005,-10e-4 -0.008,-10e-4 z m 0.22673,0 c -0.004,-4e-5 -0.007,2.8e-4 -0.0102,10e-4 -0.006,0.002 -0.003,0.003 0.008,0.003 0.0104,1.3e-4 0.0154,-10e-4 0.0111,-0.003 -0.002,-8.4e-4 -0.006,-10e-4 -0.009,-10e-4 z m 5.98642,0 c -0.004,-4e-5 -0.007,2.8e-4 -0.0102,10e-4 -0.006,0.002 -0.003,0.003 0.008,0.003 0.0104,1.3e-4 0.0154,-10e-4 0.0111,-0.003 -0.002,-8.4e-4 -0.006,-10e-4 -0.009,-10e-4 z m 0.22203,0 c -0.003,0 -0.006,3.6e-4 -0.008,10e-4 -0.004,0.002 -8.1e-4,0.003 0.008,0.003 0.009,0 0.012,-0.002 0.008,-0.003 -0.002,-8.3e-4 -0.006,-10e-4 -0.008,-10e-4 z m -6.46732,0.006 c -0.002,-9e-5 -0.005,3.2e-4 -0.007,10e-4 -0.005,0.002 -0.004,0.003 0.004,0.004 0.006,2.7e-4 0.0104,-10e-4 0.008,-0.003 h -1.5e-4 c -0.002,-10e-4 -0.003,-0.002 -0.005,-0.002 z m 0.29761,0 c -0.002,0 -0.006,5.3e-4 -0.008,10e-4 -0.004,0.002 -6.1e-4,0.003 0.008,0.003 0.009,0 0.0122,-0.001 0.008,-0.003 -0.002,-8.3e-4 -0.005,-10e-4 -0.008,-10e-4 z m 5.90424,0 c -0.002,0 -0.006,5.3e-4 -0.008,10e-4 -0.004,0.002 -6.1e-4,0.003 0.008,0.003 0.009,0 0.0122,-0.001 0.008,-0.003 -0.002,-8.3e-4 -0.005,-10e-4 -0.008,-10e-4 z m 0.30295,0 c -0.002,-9e-5 -0.005,3.2e-4 -0.007,10e-4 -0.005,0.002 -0.004,0.003 0.004,0.004 0.006,2.7e-4 0.0104,-10e-4 0.008,-0.003 h -1.5e-4 c -8.1e-4,-10e-4 -0.003,-0.002 -0.005,-0.002 z m -6.53021,0.006 c -0.002,-9e-5 -0.005,3.3e-4 -0.006,10e-4 -0.005,0.002 -0.004,0.003 0.004,0.004 0.006,2.7e-4 0.0104,-10e-4 0.008,-0.003 -0.002,-10e-4 -0.003,-0.002 -0.006,-0.002 z m 0.36033,0 c -0.002,-9e-5 -0.005,3.3e-4 -0.007,10e-4 -0.005,0.002 -0.004,0.003 0.004,0.004 0.006,2.7e-4 0.0104,-10e-4 0.008,-0.003 -6.1e-4,-10e-4 -0.003,-0.002 -0.006,-0.002 z m 5.83479,0 c -0.002,-9e-5 -0.005,3.3e-4 -0.006,10e-4 -0.005,0.002 -0.004,0.003 0.004,0.004 0.006,2.7e-4 0.0104,-10e-4 0.008,-0.003 -8.1e-4,-10e-4 -0.003,-0.002 -0.006,-0.002 z m 0.36033,0 c -0.002,-9e-5 -0.005,3.3e-4 -0.006,10e-4 -0.005,0.002 -0.004,0.003 0.004,0.004 0.006,2.7e-4 0.0104,-10e-4 0.008,-0.003 -0.002,-10e-4 -0.003,-0.002 -0.005,-0.002 z m -6.16972,0.006 c -0.002,-8e-5 -0.005,3.3e-4 -0.007,10e-4 -0.005,0.002 -0.004,0.004 0.004,0.004 0.006,2.7e-4 0.0104,-10e-4 0.008,-0.003 l -1.4e-4,-1.6e-4 c -0.002,-10e-4 -0.002,-0.002 -0.005,-0.002 z m 5.78414,0 c -0.002,-8e-5 -0.005,3.3e-4 -0.007,10e-4 -0.005,0.002 -0.004,0.004 0.004,0.004 0.006,2.7e-4 0.0104,-10e-4 0.008,-0.003 v -1.6e-4 c -0.002,-10e-4 -0.003,-0.002 -0.006,-0.002 z m -6.21033,0.006 c -0.004,0 -0.0106,0.003 -0.0159,0.006 -0.006,0.003 -0.006,0.006 -0.003,0.006 0.003,0 0.0106,-0.003 0.0159,-0.006 0.006,-0.003 0.006,-0.006 0.003,-0.006 z m 6.63119,0 c -0.004,0 -0.002,0.003 0.003,0.006 0.006,0.003 0.0124,0.006 0.0159,0.006 0.004,0 0.002,-0.003 -0.003,-0.006 -0.006,-0.003 -0.0124,-0.006 -0.0159,-0.006 z m -0.44626,5.9e-4 c -0.002,-8e-5 -0.005,3.3e-4 -0.006,10e-4 -0.005,0.002 -0.004,0.003 0.004,0.004 0.006,2.7e-4 0.0104,-0.001 0.008,-0.003 -8.1e-4,-10e-4 -0.003,-0.002 -0.006,-0.002 z m -5.68299,0.0123 c -0.002,-8e-5 -0.005,3.3e-4 -0.006,10e-4 -0.005,0.002 -0.004,0.004 0.004,0.004 0.006,2.7e-4 0.0104,-10e-4 0.008,-0.003 v -1.4e-4 c -0.002,-10e-4 -0.003,-0.002 -0.006,-0.002 z m 0.14284,0.0489 c -0.004,0 -0.002,0.003 0.003,0.006 0.006,0.003 0.0124,0.006 0.0159,0.006 0.004,0 0.002,-0.003 -0.003,-0.006 -0.006,-0.003 -0.0124,-0.006 -0.0159,-0.006 z m 5.34164,0 c -0.004,0 -0.0106,0.003 -0.0159,0.006 -0.006,0.003 -0.006,0.006 -0.003,0.006 0.004,0 0.0106,-0.003 0.0159,-0.006 0.006,-0.003 0.006,-0.006 0.003,-0.006 z m -6.11217,0.008 c 8.1e-4,-0.002 -0.009,0.007 -0.0282,0.0256 -0.0219,0.0204 -0.0457,0.0454 -0.053,0.0556 -0.015,0.0211 -0.0167,0.0226 0.046,-0.0434 0.0229,-0.0242 0.0343,-0.0363 0.0353,-0.0379 z m 0.80205,0.004 c -0.004,0 -0.002,0.003 0.003,0.006 0.006,0.003 0.0124,0.006 0.0159,0.006 0.004,0 0.002,-0.003 -0.003,-0.006 -0.006,-0.003 -0.0124,-0.006 -0.0159,-0.006 z m 0.0443,0.0187 c -0.004,0 6.1e-4,0.004 0.009,0.009 0.009,0.005 0.0186,0.009 0.0222,0.009 0.004,0 -8.1e-4,-0.004 -0.009,-0.009 -0.009,-0.005 -0.0186,-0.009 -0.0222,-0.009 z m 5.18986,1.5e-4 c -0.004,0 -0.0162,0.005 -0.0283,0.0118 -0.0122,0.007 -0.0193,0.0118 -0.0159,0.0118 0.004,0 0.0163,-0.005 0.0284,-0.0118 0.0121,-0.007 0.0193,-0.0118 0.0159,-0.0118 z m -0.15492,0.0763 c 0,-0.002 -0.008,0.001 -0.0189,0.007 -0.0104,0.005 -0.0189,0.011 -0.0189,0.0127 0,0.002 0.008,-10e-4 0.0189,-0.007 0.0104,-0.005 0.0189,-0.011 0.0189,-0.0127 z m -4.88017,1.5e-4 c 0,0.002 0.0108,0.009 0.0239,0.0153 0.0268,0.0138 0.0268,0.0138 0.0268,0.01 0,-0.002 -0.0113,-0.009 -0.0252,-0.0156 -0.0139,-0.007 -0.0254,-0.0112 -0.0254,-0.01 z m -1.10907,0.0219 c -0.002,0 -0.007,0.008 -0.013,0.0185 -0.006,0.0102 -0.008,0.0185 -0.006,0.0185 0.002,0 0.007,-0.008 0.013,-0.0185 0.006,-0.0102 0.008,-0.0185 0.006,-0.0185 z m 7.09846,0 c -0.002,0 8.1e-4,0.008 0.006,0.0185 0.006,0.0102 0.0113,0.0185 0.013,0.0185 0.002,0 -0.002,-0.008 -0.006,-0.0185 -0.006,-0.0102 -0.0111,-0.0185 -0.0129,-0.0185 z m -1.16975,0.009 c -0.002,6.6e-4 -0.006,0.002 -0.009,0.004 -0.007,0.004 -0.0128,0.008 -0.0128,0.01 0,0.002 0.006,1.2e-4 0.0128,-0.004 0.007,-0.004 0.0127,-0.008 0.0127,-0.01 0,-8.4e-4 -0.002,-8.4e-4 -0.004,-1.6e-4 z m -4.74956,0.005 c -2.3e-4,3.9e-4 0.003,0.003 0.009,0.007 0.0129,0.0101 0.0161,0.0115 0.0161,0.007 l -1.7e-4,-1.5e-4 c 0,-0.002 -0.006,-0.006 -0.0142,-0.01 -0.006,-0.003 -0.0103,-0.005 -0.0105,-0.004 z m 0.0317,0.0186 c -2.4e-4,3.8e-4 0.003,0.003 0.009,0.007 0.0129,0.0101 0.0161,0.0113 0.0161,0.007 0,-0.002 -0.006,-0.006 -0.0142,-0.01 -0.006,-0.003 -0.0103,-0.005 -0.0105,-0.004 z m 4.67366,7.7e-4 c -0.002,6.5e-4 -0.006,0.002 -0.009,0.004 -0.007,0.004 -0.0127,0.008 -0.0127,0.01 0,0.002 0.006,1.2e-4 0.0127,-0.004 0.007,-0.004 0.0125,-0.008 0.0125,-0.01 0,-8.4e-4 -8.1e-4,-9.5e-4 -0.003,-3e-4 z m 1.23749,0.0109 c -6.1e-4,-3.8e-4 -0.002,-2.9e-4 -0.002,3e-4 -3.1e-4,0.007 0.0143,0.036 0.0172,0.0332 8e-4,-10e-4 -0.002,-0.0104 -0.007,-0.0201 -0.004,-0.007 -0.007,-0.0124 -0.009,-0.0135 z m -7.1455,9.5e-4 c -0.002,1.4e-4 -0.005,0.004 -0.009,0.0104 -0.005,0.008 -0.009,0.0184 -0.009,0.0218 0,0.003 0.004,-8.3e-4 0.009,-0.009 0.005,-0.008 0.009,-0.0182 0.009,-0.0216 0,-8.9e-4 -1.7e-4,-10e-4 -6e-4,-10e-4 z m 1.26587,0.006 c -2.4e-4,3.8e-4 0.003,0.003 0.009,0.007 0.0129,0.0101 0.0162,0.0115 0.0162,0.007 h -1.5e-4 c 0,-0.002 -0.006,-0.006 -0.0142,-0.01 -0.006,-0.003 -0.0103,-0.005 -0.0105,-0.004 z m 0.0902,0.0566 c 2.7e-4,8.9e-4 0.004,0.004 0.0103,0.009 0.0177,0.0141 0.0215,0.0158 0.0159,0.007 -0.002,-0.003 -0.01,-0.009 -0.0176,-0.0127 -0.006,-0.003 -0.009,-0.004 -0.009,-0.003 z m 0.0737,0.0467 c -3e-4,3.3e-4 0.002,0.003 0.006,0.008 0.008,0.0103 0.0135,0.0135 0.0135,0.008 0,-10e-4 -0.005,-0.006 -0.0111,-0.0107 -0.005,-0.004 -0.007,-0.006 -0.008,-0.006 z m 4.28603,0 c -2.9e-4,-3.3e-4 -0.003,0.002 -0.008,0.006 -0.006,0.005 -0.0111,0.009 -0.0111,0.0107 0,0.005 0.006,0.002 0.0135,-0.008 0.004,-0.005 0.006,-0.007 0.006,-0.008 z m -5.76359,0.002 c -6e-4,6.5e-4 -0.002,0.003 -0.002,0.006 -2.6e-4,0.007 0.002,0.0102 0.003,0.008 0.002,-0.002 0.002,-0.008 6.1e-4,-0.012 h -1.6e-4 c -8e-4,-0.002 -0.002,-0.003 -0.003,-0.003 z m 7.23817,0 c -6.1e-4,6.5e-4 -0.002,0.003 -0.002,0.006 -2.7e-4,0.007 0.002,0.0102 0.003,0.008 0.002,-0.002 0.002,-0.008 6e-4,-0.012 -0.002,-0.002 -0.002,-0.003 -0.003,-0.003 z m -5.7385,0.0152 0.0189,0.0159 c 0.0195,0.0163 0.0222,0.0179 0.0222,0.0133 0,-10e-4 -0.009,-0.009 -0.0206,-0.0161 z m 0.0443,0.0288 0.0121,0.0139 c 0.0112,0.0131 0.0165,0.0166 0.0165,0.0116 0,-10e-4 -0.006,-0.007 -0.0142,-0.0138 z m 4.149,0.003 c -0.002,0 -0.008,0.006 -0.0147,0.0124 -0.006,0.007 -0.01,0.0123 -0.008,0.0123 0.002,0 0.008,-0.005 0.0147,-0.0123 0.006,-0.007 0.01,-0.0124 0.008,-0.0124 z m -5.70542,0.002 c -6.1e-4,6.5e-4 -8.1e-4,0.003 -8.1e-4,0.006 -2.7e-4,0.007 8.1e-4,0.0102 0.003,0.008 0.002,-0.002 0.002,-0.007 6e-4,-0.0118 h -1.5e-4 c -8.1e-4,-0.002 -0.002,-0.003 -0.002,-0.003 z m 7.26341,0 c -6.1e-4,6.5e-4 -8.1e-4,0.003 -8.1e-4,0.006 -2.7e-4,0.007 8.1e-4,0.0102 0.003,0.008 0.002,-0.002 0.002,-0.007 6.1e-4,-0.0118 h -1.7e-4 c -0.002,-0.002 -0.002,-0.003 -0.002,-0.003 z m -7.26859,0.0253 c -8.1e-4,-4.2e-4 -0.002,0.003 -0.002,0.01 0,0.008 0.002,0.0119 0.003,0.008 0.002,-0.004 0.002,-0.0111 0,-0.0153 -3e-4,-10e-4 -6.1e-4,-0.002 -0.002,-0.002 z m 7.27612,0 c -8.1e-4,-4.2e-4 -0.002,0.003 -0.002,0.01 0,0.008 0.002,0.0119 0.003,0.008 0.002,-0.004 0.002,-0.0111 0,-0.0153 -6.1e-4,-10e-4 -6.1e-4,-0.002 -0.002,-0.002 z m -7.28239,0.0371 c -0.002,-4.2e-4 -0.002,0.003 -0.002,0.01 0,0.008 0.002,0.0119 0.003,0.008 0.002,-0.004 0.002,-0.0112 0,-0.0155 -3.1e-4,-10e-4 -0.002,-0.002 -0.002,-0.002 z m 7.28866,0 c -0.002,-4.2e-4 -0.002,0.003 -0.002,0.01 0,0.008 8.1e-4,0.0119 0.003,0.008 0.002,-0.004 0.002,-0.0112 0,-0.0155 -6.1e-4,-10e-4 -6.1e-4,-0.002 -8.1e-4,-0.002 z m -5.60068,0.025 0.0154,0.0169 c 0.0143,0.0159 0.0194,0.0199 0.0194,0.015 0,-0.001 -0.008,-0.009 -0.0174,-0.017 z m 3.90894,0.003 c -0.002,0 -0.01,0.007 -0.0181,0.0155 -0.008,0.008 -0.0133,0.0153 -0.0116,0.0153 0.002,0 0.01,-0.007 0.0181,-0.0153 0.008,-0.009 0.0133,-0.0155 0.0116,-0.0155 z m -5.60287,0.0113 c -0.002,-5.9e-4 -0.002,0.004 -0.002,0.0133 0,0.0119 8.1e-4,0.0168 0.003,0.0109 0.002,-0.006 0.002,-0.0158 0,-0.0218 -2.9e-4,-10e-4 -6e-4,-0.002 -8e-4,-0.002 z m 7.30119,0 c -0.002,-5.9e-4 -0.002,0.004 -0.002,0.0133 0,0.0119 0.002,0.0168 0.003,0.0109 8.1e-4,-0.006 8.1e-4,-0.0158 0,-0.0218 -3e-4,-10e-4 -6.1e-4,-0.002 -0.002,-0.002 z m -1.73219,0.0164 -0.0206,0.0182 c -0.0191,0.0169 -0.0234,0.0219 -0.0185,0.0219 0.002,0 0.0103,-0.009 0.0206,-0.0201 z m -3.79274,0.0371 0.0185,0.0201 c 0.0173,0.0187 0.0226,0.0229 0.0226,0.0181 0,-10e-4 -0.009,-0.0101 -0.0205,-0.0201 z m 3.74852,0 -0.0206,0.0181 c -0.0113,0.01 -0.0205,0.019 -0.0205,0.0201 0,0.005 0.006,6e-4 0.0226,-0.0181 z m -5.5309,0.007 c -8.1e-4,-9.4e-4 -0.002,0.007 -0.002,0.0208 0,0.0187 0.002,0.0263 0.003,0.017 0.002,-0.009 0.002,-0.0245 0,-0.0339 -3e-4,-0.002 -6.1e-4,-0.004 -0.002,-0.004 z m 5.48229,0.0336 c -0.003,7.1e-4 -0.0109,0.009 -0.0306,0.0291 l -0.0282,0.0293 0.0299,-0.0276 c 0.0165,-0.0151 0.0301,-0.0283 0.0301,-0.0293 0,-10e-4 -2.9e-4,-0.002 -0.002,-0.002 z m -3.59251,0.0523 0.0409,0.0417 c 0.0379,0.0387 0.0443,0.0446 0.0443,0.04 0,-9.4e-4 -0.0192,-0.0197 -0.0426,-0.0417 z m 3.5301,0.003 c -0.002,0 -0.0214,0.0181 -0.0438,0.0402 -0.0224,0.0221 -0.0394,0.0402 -0.0376,0.0402 0.002,0 0.0214,-0.0181 0.0439,-0.0402 0.0224,-0.0221 0.0392,-0.0402 0.0375,-0.0402 z m -3.42896,0.0895 0.0884,0.0881 c 0.0821,0.0818 0.0917,0.0909 0.0917,0.0864 0,-8.9e-4 -0.0406,-0.0406 -0.0901,-0.0881 z m 3.32171,0.009 c -0.002,0 -0.04,0.0361 -0.0851,0.0803 -0.0451,0.0442 -0.0806,0.0803 -0.0789,0.0803 0.002,0 0.0401,-0.0361 0.0851,-0.0803 0.0451,-0.0442 0.0806,-0.0803 0.0789,-0.0803 z m -0.18001,0.18221 -0.0489,0.0463 c -0.0455,0.0429 -0.0518,0.0495 -0.0472,0.0495 8.1e-4,0 0.0229,-0.0215 0.049,-0.0478 z m -2.94569,0.006 0.044,0.0448 c 0.041,0.0416 0.0475,0.0476 0.0475,0.0431 0,-9.8e-4 -0.0205,-0.0211 -0.0458,-0.0448 z m 5.11427,0.0562 c -8.1e-4,-9.7e-4 -8.1e-4,0.007 -8.1e-4,0.021 0,0.0187 8.1e-4,0.0262 0.003,0.0169 0.002,-0.009 0.002,-0.0245 0,-0.0339 -3e-4,-0.002 -8.1e-4,-0.004 -8.1e-4,-0.004 z m -4.90573,0.16612 0.0218,0.0231 c 0.0203,0.0216 0.0257,0.026 0.0257,0.0213 h -1.5e-4 c 0,-9.7e-4 -0.0106,-0.0114 -0.0236,-0.0231 z m -2.37023,0.0129 c -0.002,-0.001 -0.002,0.005 -0.002,0.0179 -5e-5,0.017 0.002,0.0248 0.003,0.0172 8.1e-4,-0.008 8.1e-4,-0.0216 0,-0.031 -3e-4,-0.002 -6.1e-4,-0.004 -0.002,-0.004 z m 7.26341,0 c -0.002,-0.001 -0.002,0.005 -0.002,0.0179 -7e-5,0.017 0.002,0.0248 0.003,0.0172 0.002,-0.008 0.002,-0.0216 0,-0.031 -3e-4,-0.002 -8.1e-4,-0.004 -8.1e-4,-0.004 z m -4.84896,0.0365 0.0186,0.0201 c 0.0173,0.0187 0.0225,0.023 0.0225,0.0182 0,-10e-4 -0.009,-0.0101 -0.0205,-0.0201 z m 2.43389,0 -0.0205,0.0182 c -0.0192,0.0169 -0.0236,0.0219 -0.0187,0.0219 0.002,0 0.0103,-0.009 0.0206,-0.0201 z m -2.39594,0.0434 0.0187,0.0201 c 0.0173,0.0187 0.0224,0.0229 0.0224,0.0181 0,-10e-4 -0.009,-0.0101 -0.0206,-0.0201 z m 2.35799,0 -0.0205,0.0181 c -0.0113,0.01 -0.0206,0.019 -0.0206,0.0201 0,0.005 0.005,6.6e-4 0.0224,-0.0181 z m -2.32005,0.0432 0.0154,0.017 c 0.0143,0.0159 0.0194,0.0197 0.0194,0.0149 0,-10e-4 -0.008,-0.009 -0.0174,-0.0169 z m 2.27788,0.003 c -0.002,0 -0.01,0.007 -0.0178,0.0155 -0.008,0.009 -0.0135,0.0155 -0.0118,0.0155 0.002,0 0.01,-0.007 0.0181,-0.0155 0.008,-0.008 0.0133,-0.0155 0.0116,-0.0155 z m -2.2462,0.034 0.0152,0.017 c 0.0143,0.0159 0.0195,0.0197 0.0195,0.0149 0,-0.001 -0.008,-0.009 -0.0174,-0.017 z m 2.21468,0.003 c -0.002,0 -0.01,0.007 -0.0181,0.0155 -0.008,0.009 -0.0134,0.0153 -0.0116,0.0153 0.002,0 0.01,-0.007 0.0178,-0.0153 0.008,-0.008 0.0135,-0.0155 0.0118,-0.0155 z m -4.72399,0.003 c -6.1e-4,-10e-4 -0.002,0.005 -0.002,0.0181 -5e-5,0.017 0.002,0.0246 0.003,0.017 0.002,-0.008 0.002,-0.0214 1.5e-4,-0.0308 h -1.5e-4 c -3.1e-4,-0.002 -6.1e-4,-0.004 -0.002,-0.004 z m 7.238,0 c -6.1e-4,-10e-4 -0.002,0.005 -0.002,0.0181 -5e-5,0.017 0.002,0.0246 0.003,0.017 0.002,-0.008 0.002,-0.0214 1.6e-4,-0.0308 h -1.6e-4 c -3e-4,-0.002 -6.1e-4,-0.004 -8.1e-4,-0.004 z m -4.69718,0.0305 0.0154,0.0168 c 0.0143,0.0159 0.0194,0.0199 0.0194,0.015 0,-10e-4 -0.008,-0.009 -0.0174,-0.017 z m 2.1515,0.003 c -0.002,0 -0.01,0.007 -0.0178,0.0155 -0.008,0.008 -0.0135,0.0153 -0.0118,0.0153 0.002,0 0.01,-0.007 0.018,-0.0153 0.008,-0.008 0.0134,-0.0155 0.0116,-0.0155 z m 2.53926,0.0446 c -0.002,-7.1e-4 -0.002,0.006 -0.002,0.0172 0,0.0153 0.002,0.0216 0.003,0.014 8.1e-4,-0.008 8.1e-4,-0.0203 0,-0.0279 -3e-4,-0.002 -0.002,-0.003 -0.002,-0.003 z m -4.63384,0.0202 0.0154,0.017 c 0.0143,0.0159 0.0194,0.0199 0.0194,0.015 0,-10e-4 -0.008,-0.009 -0.0174,-0.017 z m 2.03766,0.003 c -0.002,0 -0.01,0.007 -0.0178,0.0155 -0.008,0.008 -0.0135,0.0155 -0.0118,0.0155 0.002,0 0.01,-0.007 0.018,-0.0155 0.008,-0.009 0.0134,-0.0155 0.0116,-0.0155 z m 2.5899,0.0509 c -8.1e-4,-7.1e-4 -0.002,0.006 -0.002,0.0172 0,0.0153 0.002,0.0214 0.003,0.0138 8e-4,-0.008 8e-4,-0.0201 0,-0.0277 -3e-4,-0.002 -6.1e-4,-0.003 -0.002,-0.003 z m -0.006,0.0742 c -0.002,-7.7e-4 -0.002,0.006 -0.002,0.0172 0,0.0153 8.1e-4,0.0214 0.003,0.0138 0.002,-0.008 0.002,-0.0201 0,-0.0277 -3e-4,-0.002 -8.1e-4,-0.003 -8.1e-4,-0.003 z m -4.47592,0.051 0.012,0.0139 c 0.0113,0.0131 0.0165,0.0168 0.0165,0.0118 0,-0.001 -0.006,-0.007 -0.0142,-0.0139 z m 1.74678,0.003 c -0.002,0 -0.008,0.006 -0.0146,0.0124 -0.006,0.007 -0.01,0.0124 -0.008,0.0124 0.002,0 0.008,-0.006 0.0146,-0.0124 0.006,-0.007 0.01,-0.0124 0.008,-0.0124 z m 2.71645,0.0941 c -6.1e-4,-7.2e-4 -0.002,0.006 -0.002,0.0172 0,0.0153 0.002,0.0216 0.003,0.014 8.1e-4,-0.008 8.1e-4,-0.0203 0,-0.0279 -3.1e-4,-0.002 -6.1e-4,-0.003 -0.002,-0.003 z m -7.17482,0.006 c -6.1e-4,-0.001 -0.002,0.004 -0.002,0.0143 -7e-5,0.0136 0.002,0.0199 0.003,0.014 8.1e-4,-0.006 8.1e-4,-0.017 0,-0.0247 -3e-4,-0.002 -0.002,-0.003 -0.002,-0.004 z m 7.16855,0.068 c -0.002,-0.001 -0.002,0.004 -0.002,0.0143 -7e-5,0.0136 8.1e-4,0.0199 0.003,0.0139 0.002,-0.006 0.002,-0.017 1.5e-4,-0.0247 h -1.5e-4 c -3.1e-4,-0.002 -6.1e-4,-0.003 -8.1e-4,-0.003 z m -4.31474,0.0112 c -3e-4,3.2e-4 0.002,0.003 0.006,0.008 0.008,0.0103 0.0135,0.0135 0.0135,0.008 0,-10e-4 -0.005,-0.006 -0.011,-0.0107 -0.005,-0.004 -0.008,-0.006 -0.008,-0.005 z m 1.46657,0 c -3e-4,-3.3e-4 -0.003,0.001 -0.008,0.005 -0.006,0.005 -0.0111,0.009 -0.0111,0.0107 0,0.005 0.006,0.002 0.0134,-0.008 0.004,-0.005 0.006,-0.007 0.006,-0.008 z m -1.44524,0.0247 c -0.002,0 0.003,0.008 0.0103,0.0186 0.007,0.0102 0.015,0.0185 0.0167,0.0185 0.002,0 -0.003,-0.008 -0.0103,-0.0185 -0.007,-0.0102 -0.015,-0.0186 -0.0167,-0.0186 z m 1.42407,0 c -0.002,0 -0.009,0.008 -0.0166,0.0186 -0.007,0.0102 -0.0121,0.0185 -0.0104,0.0185 0.002,0 0.009,-0.008 0.0167,-0.0185 0.007,-0.0102 0.0121,-0.0186 0.0104,-0.0186 z m -1.39476,0.0432 c -3e-4,3.3e-4 0.002,0.003 0.006,0.008 0.008,0.0103 0.0134,0.0137 0.0134,0.009 h 1.5e-4 c 0,-10e-4 -0.005,-0.006 -0.0111,-0.0109 -0.005,-0.004 -0.007,-0.006 -0.008,-0.005 z m 1.36544,0 c -3e-4,-3.3e-4 -0.003,0.001 -0.008,0.005 -0.0105,0.008 -0.0138,0.0132 -0.009,0.0132 0.002,0 0.006,-0.005 0.0111,-0.0109 0.004,-0.005 0.006,-0.007 0.006,-0.008 z m -1.33392,0.0432 c -3e-4,3.2e-4 0.002,0.003 0.006,0.008 0.008,0.0103 0.0135,0.0135 0.0135,0.008 0,-10e-4 -0.005,-0.006 -0.011,-0.0109 -0.005,-0.004 -0.008,-0.006 -0.008,-0.005 z m 1.30225,0 c -3e-4,-3.3e-4 -0.002,10e-4 -0.008,0.005 -0.0106,0.008 -0.0139,0.0132 -0.009,0.0132 0.002,0 0.006,-0.005 0.0112,-0.0107 0.004,-0.005 0.006,-0.008 0.006,-0.008 z m -4.21924,0.0136 c -0.002,-10e-4 -0.002,0.004 -0.002,0.0143 -8e-5,0.0136 8.1e-4,0.0199 0.002,0.014 0.002,-0.006 0.002,-0.017 1.6e-4,-0.0247 h -1.6e-4 c -3e-4,-0.002 -6e-4,-0.003 -6e-4,-0.004 z m 7.13686,0 c -8e-4,-10e-4 -8e-4,0.004 -8e-4,0.0143 -7e-5,0.0136 8e-4,0.0199 0.003,0.014 0.002,-0.006 0.002,-0.017 1.6e-4,-0.0247 h -1.6e-4 c -3e-4,-0.002 -8.1e-4,-0.003 -8.1e-4,-0.004 z m -4.18819,0.0296 c -3e-4,3.3e-4 0.002,0.003 0.006,0.008 0.008,0.0103 0.0134,0.0135 0.0134,0.008 0,-10e-4 -0.005,-0.006 -0.0111,-0.0107 -0.005,-0.004 -0.007,-0.006 -0.008,-0.005 z m 1.23905,0 c -3e-4,-3.2e-4 -0.003,0.002 -0.008,0.006 -0.006,0.005 -0.011,0.009 -0.011,0.0107 0,0.005 0.005,0.002 0.0133,-0.008 h 1.6e-4 c 0.004,-0.005 0.006,-0.008 0.006,-0.008 z m -4.18145,0.0383 c -0.002,-0.001 -0.002,0.004 -0.002,0.0143 -7e-5,0.0136 0.002,0.0199 0.003,0.0139 8.1e-4,-0.006 8.1e-4,-0.017 1.6e-4,-0.0247 h -1.6e-4 c -2.9e-4,-0.002 -0.002,-0.003 -0.002,-0.004 z m 2.97627,0.005 c -0.002,0 0.003,0.008 0.0104,0.0185 0.007,0.0102 0.015,0.0186 0.0168,0.0186 0.002,0 -0.003,-0.008 -0.0103,-0.0186 -0.007,-0.0102 -0.015,-0.0185 -0.0168,-0.0185 z m 1.17131,0 c -0.002,0 -0.009,0.008 -0.0168,0.0185 -0.007,0.0102 -0.0121,0.0186 -0.0104,0.0186 0.002,0 0.009,-0.008 0.0168,-0.0186 0.007,-0.0102 0.0121,-0.0185 0.0104,-0.0185 z m -4.14131,0.0567 c -8.1e-4,-10e-4 -8.1e-4,0.004 -8.1e-4,0.0142 -7e-5,0.0136 8.1e-4,0.0199 0.003,0.014 0.002,-0.006 0.002,-0.017 1.6e-4,-0.0247 h -1.6e-4 c -3e-4,-0.002 -0.002,-0.003 -0.002,-0.004 z m 7.11178,0 c -0.002,-10e-4 -0.002,0.004 -0.002,0.0142 -7e-5,0.0136 0.002,0.0199 0.002,0.014 0.002,-0.006 0.002,-0.017 0,-0.0247 -3.1e-4,-0.002 -6.1e-4,-0.003 -8.1e-4,-0.004 z m -4.08455,0.0236 c -0.002,0 0.006,0.0124 0.0165,0.0277 0.0108,0.0153 0.0208,0.0279 0.0226,0.0279 0.002,0 -0.006,-0.0126 -0.0163,-0.0279 -0.0108,-0.0153 -0.0209,-0.0277 -0.0227,-0.0277 z m 1.05685,0 c -0.002,0 -0.012,0.0124 -0.0227,0.0277 -0.0108,0.0153 -0.0181,0.0279 -0.0163,0.0279 0.002,0 0.0118,-0.0126 0.0226,-0.0279 0.0108,-0.0153 0.0182,-0.0277 0.0165,-0.0277 z m -4.07765,0.0383 c -8.1e-4,-0.001 -0.002,0.004 -0.002,0.0141 -7e-5,0.0136 0.002,0.02 0.002,0.0141 8.1e-4,-0.006 8.1e-4,-0.0172 1.5e-4,-0.0248 h -1.5e-4 c -3.1e-4,-0.002 -6.1e-4,-0.003 -6.1e-4,-0.003 z m 7.09893,0 c -6.1e-4,-0.001 -8.1e-4,0.004 -8.1e-4,0.0141 -7e-5,0.0136 8.1e-4,0.02 0.003,0.0141 0.002,-0.006 0.002,-0.0172 1.5e-4,-0.0248 h -1.5e-4 c -3.1e-4,-0.002 -6.1e-4,-0.003 -0.002,-0.003 z m -7.09266,0.0618 c -0.002,-10e-4 -0.002,0.004 -0.002,0.0143 -7e-5,0.0136 8.1e-4,0.0199 0.003,0.014 0.002,-0.006 0.002,-0.0171 1.5e-4,-0.0248 h -1.5e-4 c -3.1e-4,-0.002 -6.1e-4,-0.003 -8.1e-4,-0.003 z m 0.006,0.0596 c -0.002,-5.9e-4 -0.002,0.004 -0.002,0.0133 0,0.0119 8e-4,0.0167 0.003,0.0107 0.002,-0.006 0.002,-0.0157 0,-0.0216 -3e-4,-10e-4 -6e-4,-0.002 -8.1e-4,-0.003 z m 7.07384,0 c -8.1e-4,-5.9e-4 -0.002,0.004 -0.002,0.0133 0,0.0119 0.002,0.0167 0.003,0.0107 8.1e-4,-0.006 8.1e-4,-0.0157 0,-0.0216 -3e-4,-10e-4 -6.1e-4,-0.002 -0.002,-0.003 z m -3.12539,0.0101 -0.0103,0.0124 c -0.006,0.007 -0.013,0.0179 -0.0165,0.0247 l -0.006,0.0124 0.0103,-0.0124 c 0.006,-0.007 0.013,-0.0179 0.0165,-0.0247 z m -0.82102,0.004 c -1.9e-4,4.2e-4 0.002,0.004 0.006,0.0115 0.0166,0.0284 0.0183,0.031 0.0213,0.031 0.002,0 3e-4,-0.005 -0.003,-0.0109 h -1.6e-4 c -0.003,-0.006 -0.0109,-0.0163 -0.0167,-0.0231 -0.005,-0.006 -0.007,-0.009 -0.008,-0.008 z m -3.12099,0.0415 c -0.002,-6e-4 -0.002,0.004 -0.002,0.0132 0,0.0119 0.002,0.0168 0.003,0.0109 0.002,-0.006 0.002,-0.0157 0,-0.0216 -2.9e-4,-10e-4 -6e-4,-0.002 -8e-4,-0.002 z m 7.06098,0 c -0.002,-6e-4 -0.002,0.004 -0.002,0.0132 0,0.0119 8.1e-4,0.0168 0.003,0.0109 0.002,-0.006 0.002,-0.0157 0,-0.0216 -3e-4,-10e-4 -6e-4,-0.002 -8e-4,-0.002 z m -0.006,0.0555 c -0.002,-5.9e-4 -0.002,0.004 -0.002,0.0133 0,0.0119 8.1e-4,0.0168 0.003,0.0109 0.002,-0.006 0.002,-0.0157 0,-0.0216 -3.1e-4,-0.001 -6.1e-4,-0.002 -8.1e-4,-0.003 z m -3.86299,0.007 c -0.002,0 -1.2e-4,0.006 0.004,0.0124 0.004,0.007 0.008,0.0123 0.01,0.0123 0.002,0 1.2e-4,-0.005 -0.004,-0.0123 -0.004,-0.007 -0.008,-0.0124 -0.0101,-0.0124 z m 0.67739,0 c -0.002,0 -0.006,0.006 -0.01,0.0124 -0.004,0.007 -0.006,0.0123 -0.004,0.0123 0.002,0 0.006,-0.005 0.01,-0.0123 0.004,-0.007 0.006,-0.0124 0.004,-0.0124 z m -3.85656,0.0484 c -0.002,-5.9e-4 -0.002,0.004 -0.002,0.0133 0,0.0119 8.1e-4,0.0168 0.003,0.0109 0.002,-0.006 0.002,-0.0158 0,-0.0217 -3e-4,-10e-4 -6e-4,-0.002 -8.1e-4,-0.003 z m 7.03588,0 c -0.002,-5.9e-4 -0.002,0.004 -0.002,0.0133 0,0.0119 0.002,0.0168 0.003,0.0109 8.1e-4,-0.006 8.1e-4,-0.0158 0,-0.0217 -3e-4,-10e-4 -6e-4,-0.002 -0.002,-0.003 z m -3.82503,9.7e-4 c -0.002,0 -1.3e-4,0.006 0.004,0.0124 0.003,0.007 0.008,0.0124 0.01,0.0124 0.002,0 1.2e-4,-0.006 -0.004,-0.0124 -0.003,-0.007 -0.008,-0.0124 -0.01,-0.0124 z m 0.61403,0 c -0.002,0 -0.006,0.006 -0.01,0.0124 -0.004,0.007 -0.006,0.0124 -0.004,0.0124 0.002,0 0.006,-0.006 0.01,-0.0124 0.004,-0.007 0.006,-0.0124 0.004,-0.0124 z m 3.20457,0.0486 c -0.002,-5.9e-4 -0.002,0.004 -0.002,0.0133 0,0.0119 0.002,0.0167 0.003,0.0107 0.002,-0.006 0.002,-0.0157 0,-0.0216 -3e-4,-10e-4 -0.002,-0.002 -0.002,-0.003 z m -7.02302,0.006 c -0.002,-10e-4 -0.002,0.003 -0.002,0.0104 -1.4e-4,0.0102 8.1e-4,0.0151 0.003,0.0109 0.002,-0.004 0.002,-0.0125 1.5e-4,-0.0185 -3e-4,-0.001 -6.1e-4,-0.002 -0.002,-0.003 z m 3.25491,0.0258 c -0.002,0 -1.3e-4,0.006 0.004,0.0124 0.004,0.007 0.008,0.0124 0.01,0.0124 0.002,0 1.2e-4,-0.006 -0.004,-0.0124 -0.004,-0.007 -0.008,-0.0124 -0.01,-0.0124 z m 0.51305,0 c -0.002,0 -0.006,0.006 -0.01,0.0124 -0.004,0.007 -0.006,0.0124 -0.004,0.0124 0.002,0 0.006,-0.006 0.01,-0.0124 0.004,-0.007 0.006,-0.0124 0.004,-0.0124 z m -3.76169,0.0236 c -0.002,-10e-4 -0.002,0.003 -0.002,0.0104 -1.3e-4,0.0102 0.002,0.0152 0.003,0.011 0.002,-0.004 0.002,-0.0125 3.1e-4,-0.0186 h -1.7e-4 c -3e-4,-0.001 -6e-4,-0.003 -0.002,-0.003 z m 7.01048,0 c -0.002,-10e-4 -0.002,0.003 -0.002,0.0104 -1.2e-4,0.0102 0.002,0.0152 0.003,0.011 0.002,-0.004 0.002,-0.0125 1.6e-4,-0.0186 h -1.6e-4 c -3e-4,-0.001 -6.1e-4,-0.003 -0.002,-0.003 z m -3.74288,0.007 c -0.002,0 -1.2e-4,0.006 0.004,0.0124 0.004,0.007 0.008,0.0123 0.01,0.0123 0.002,0 1.2e-4,-0.005 -0.004,-0.0123 -0.004,-0.007 -0.008,-0.0124 -0.01,-0.0124 z m 0.47512,0 c -0.002,0 -0.006,0.006 -0.01,0.0124 -0.004,0.007 -0.006,0.0123 -0.004,0.0123 0.002,0 0.006,-0.005 0.01,-0.0123 0.004,-0.007 0.006,-0.0124 0.004,-0.0124 z m -0.45613,0.031 c -0.002,0 -1.3e-4,0.005 0.004,0.0123 0.004,0.007 0.008,0.0124 0.01,0.0124 0.002,0 1.2e-4,-0.006 -0.004,-0.0124 -0.004,-0.007 -0.008,-0.0123 -0.01,-0.0123 z m 0.43715,0 c -0.002,0 -0.006,0.005 -0.01,0.0123 -0.004,0.007 -0.006,0.0124 -0.004,0.0124 0.002,0 0.006,-0.006 0.01,-0.0124 0.004,-0.007 0.006,-0.0123 0.004,-0.0123 z m -3.71747,0.005 c -8.1e-4,-10e-4 -0.002,0.003 -0.002,0.0103 -1.3e-4,0.0102 0.002,0.0152 0.003,0.011 0.002,-0.004 0.002,-0.0125 1.5e-4,-0.0185 h -1.5e-4 c -3.1e-4,-0.001 -6.1e-4,-0.002 -0.002,-0.003 z m 6.99794,0 c -0.002,-10e-4 -0.002,0.003 -0.002,0.0103 -1.2e-4,0.0102 8.1e-4,0.0152 0.003,0.011 0.002,-0.004 0.002,-0.0125 3e-4,-0.0185 h -1.6e-4 c -3e-4,-0.001 -6e-4,-0.002 -8.1e-4,-0.003 z m -3.69866,0.0257 c -0.002,0 -1.2e-4,0.006 0.004,0.0124 0.004,0.007 0.008,0.0123 0.0101,0.0123 0.002,0 -3e-5,-0.005 -0.004,-0.0123 -0.003,-0.007 -0.008,-0.0124 -0.01,-0.0124 z m 0.39922,0 c -0.002,0 -0.006,0.006 -0.01,0.0124 -0.004,0.007 -0.006,0.0123 -0.004,0.0123 0.002,0 0.006,-0.005 0.01,-0.0123 0.004,-0.007 0.006,-0.0124 0.004,-0.0124 z m 3.2927,0.0215 c -0.002,-4.1e-4 -0.002,0.003 -0.002,0.01 0,0.009 8.1e-4,0.0119 0.003,0.008 0.002,-0.004 0.002,-0.0112 0,-0.0155 -6.1e-4,-10e-4 -8.1e-4,-0.002 -8.1e-4,-0.002 z m -3.66667,0.0218 c -0.002,0 -1.2e-4,0.006 0.004,0.0124 0.004,0.007 0.008,0.0124 0.01,0.0124 0.002,0 1.2e-4,-0.006 -0.004,-0.0124 -0.004,-0.007 -0.008,-0.0124 -0.01,-0.0124 z m 0.34857,0 c -0.002,0 -0.006,0.006 -0.01,0.0124 -0.003,0.007 -0.006,0.0124 -0.003,0.0124 0.002,0 0.006,-0.006 0.01,-0.0124 0.004,-0.007 0.006,-0.0124 0.004,-0.0124 z m -3.66071,0.0215 c -8.1e-4,-4.2e-4 -0.002,0.003 -0.002,0.009 0,0.009 0.002,0.0119 0.003,0.008 0.002,-0.004 0.002,-0.0111 0,-0.0153 -6.1e-4,-10e-4 -6.1e-4,-0.002 -0.002,-0.002 z m 6.97254,0 c -8.1e-4,-4.2e-4 -0.002,0.003 -0.002,0.009 0,0.009 0.002,0.0119 0.003,0.008 0.002,-0.004 0.002,-0.0111 0,-0.0153 -6.1e-4,-10e-4 -0.002,-0.002 -0.002,-0.002 z m -3.635,0.0219 c -0.002,0 -1.2e-4,0.005 0.004,0.0123 0.004,0.007 0.008,0.0124 0.01,0.0124 0.002,0 1.2e-4,-0.006 -0.004,-0.0124 -0.004,-0.007 -0.008,-0.0123 -0.01,-0.0123 z m 0.29792,0 c -0.002,0 -0.006,0.005 -0.01,0.0123 -0.004,0.007 -0.006,0.0124 -0.004,0.0124 0.002,0 0.006,-0.006 0.01,-0.0124 0.003,-0.007 0.006,-0.0123 0.003,-0.0123 z m -3.62919,0.0152 c -8.1e-4,-4.2e-4 -0.002,0.003 -0.002,0.009 0,0.008 0.002,0.0119 0.003,0.008 0.002,-0.004 0.002,-0.0112 0,-0.0155 -6.1e-4,-10e-4 -6.1e-4,-0.002 -0.002,-0.002 z m 6.95999,0 c -0.002,-4.2e-4 -0.002,0.003 -0.002,0.009 0,0.008 8.1e-4,0.0119 0.003,0.008 0.002,-0.004 0.002,-0.0112 0,-0.0155 -6.1e-4,-10e-4 -6.1e-4,-0.002 -8.1e-4,-0.002 z m -6.95372,0.0371 c -0.002,-4.1e-4 -0.002,0.003 -0.002,0.01 0,0.008 8.1e-4,0.0119 0.003,0.008 0.002,-0.004 0.002,-0.0112 0,-0.0155 -6.1e-4,-0.001 -6.1e-4,-0.002 -8.1e-4,-0.002 z m 6.94729,0 c -0.002,-4.1e-4 -0.002,0.003 -0.002,0.01 0,0.008 0.002,0.0119 0.003,0.008 0.002,-0.004 0.002,-0.0112 0,-0.0155 -3e-4,-0.001 -6e-4,-0.002 -0.002,-0.002 z m -3.59078,0.003 c -0.002,0 -1.1e-4,0.006 0.004,0.0124 0.004,0.007 0.008,0.0124 0.01,0.0124 0.002,0 1.2e-4,-0.006 -0.004,-0.0124 -0.004,-0.007 -0.008,-0.0124 -0.01,-0.0124 z m 0.2349,0 c -0.002,0 -0.006,0.006 -0.01,0.0124 -0.004,0.007 -0.006,0.0124 -0.004,0.0124 0.002,0 0.006,-0.006 0.01,-0.0124 0.003,-0.007 0.006,-0.0124 0.003,-0.0124 z m 3.34961,0.0276 c -0.002,-4.2e-4 -0.002,0.003 -0.002,0.01 0,0.008 8e-4,0.0121 0.003,0.008 0.002,-0.004 0.002,-0.0112 0,-0.0155 -6e-4,-10e-4 -8.1e-4,-0.002 -8.1e-4,-0.002 z m -6.93584,0.006 c -6.1e-4,6.7e-4 -0.002,0.003 -0.002,0.006 -2.7e-4,0.006 0.002,0.0102 0.003,0.008 0.002,-0.002 0.002,-0.007 6e-4,-0.0118 -8.1e-4,-0.002 -0.002,-0.003 -0.003,-0.003 z m 0.006,0.0247 c -6.1e-4,6.7e-4 -0.002,0.003 -0.002,0.006 -2.7e-4,0.007 0.002,0.0102 0.004,0.008 0.002,-0.002 0.002,-0.007 6.1e-4,-0.0118 -8.1e-4,-0.002 -0.002,-0.003 -0.003,-0.003 z m 6.92205,0 c -6.1e-4,6.7e-4 -8.1e-4,0.003 -8.1e-4,0.006 -2.6e-4,0.007 8.1e-4,0.0102 0.003,0.008 0.002,-0.002 0.002,-0.007 6.1e-4,-0.0118 -0.002,-0.002 -0.002,-0.003 -0.003,-0.003 z m -3.53872,0.0101 c -0.002,0 0.004,0.0138 0.0129,0.0308 0.009,0.017 0.0174,0.031 0.0191,0.031 0.002,0 -0.004,-0.014 -0.0129,-0.031 -0.009,-0.017 -0.0174,-0.0308 -0.0191,-0.0308 z m 0.15837,0 c -0.002,0 -0.0103,0.0138 -0.0191,0.0308 -0.009,0.017 -0.0146,0.031 -0.0129,0.031 0.002,0 0.0104,-0.014 0.0191,-0.031 0.009,-0.017 0.0146,-0.0308 0.0129,-0.0308 z m -3.49873,0.13088 c -6.1e-4,10e-4 6e-4,0.006 0.004,0.0141 0.002,0.006 0.006,0.009 0.006,0.007 8.1e-4,-0.002 -7e-5,-0.008 -0.004,-0.0141 -0.004,-0.006 -0.006,-0.008 -0.006,-0.007 z m 3.41955,0.002 c -0.006,0 -0.0104,0.002 -0.009,0.005 0.002,0.003 0.006,0.005 0.009,0.005 0.003,0 0.007,-0.002 0.009,-0.005 0.002,-0.003 -0.002,-0.005 -0.009,-0.005 z m -3.40685,0.0294 c -6.1e-4,10e-4 3e-4,0.006 0.003,0.014 0.002,0.005 0.006,0.009 0.006,0.007 8.1e-4,-0.002 -6e-5,-0.008 -0.004,-0.0143 -0.004,-0.006 -0.006,-0.008 -0.006,-0.007 z m 6.81213,1.5e-4 c -8.1e-4,5.7e-4 -0.003,0.002 -0.004,0.005 -0.004,0.005 -0.006,0.0121 -0.006,0.0155 0,0.003 0.003,0.002 0.006,-0.003 0.004,-0.005 0.006,-0.0121 0.006,-0.0155 0,-0.002 -6.1e-4,-0.002 -0.002,-0.002 z m -6.79316,0.0431 c -6.1e-4,10e-4 3e-4,0.006 0.004,0.014 0.002,0.005 0.006,0.009 0.006,0.007 0.002,-0.002 -7e-5,-0.008 -0.004,-0.0141 -0.003,-0.006 -0.006,-0.008 -0.006,-0.007 z m 6.77418,2.9e-4 c -0.002,5.7e-4 -0.003,0.002 -0.004,0.005 -0.004,0.005 -0.006,0.0119 -0.006,0.0153 0,0.003 0.003,0.002 0.006,-0.003 0.003,-0.005 0.006,-0.0121 0.006,-0.0155 0,-0.002 -6.1e-4,-0.002 -0.002,-0.002 z m -6.72118,0.1036 c -0.002,0 0.002,0.008 0.006,0.0185 0.006,0.0102 0.0113,0.0184 0.013,0.0184 0.002,0 -8.1e-4,-0.008 -0.006,-0.0184 -0.006,-0.0102 -0.0111,-0.0185 -0.0129,-0.0185 z m 6.66975,0 c -0.002,0 -0.007,0.008 -0.013,0.0185 -0.006,0.0102 -0.008,0.0184 -0.006,0.0184 0.002,0 0.007,-0.008 0.013,-0.0184 0.006,-0.0102 0.008,-0.0185 0.006,-0.0185 z m -6.64466,0.0432 c -0.002,0 -1.2e-4,0.005 0.004,0.0123 0.004,0.007 0.008,0.0124 0.01,0.0124 0.002,0 1.2e-4,-0.006 -0.004,-0.0124 -0.004,-0.007 -0.008,-0.0123 -0.01,-0.0123 z m 6.61957,0 c -0.002,0 -0.006,0.005 -0.01,0.0123 -0.004,0.007 -0.006,0.0124 -0.004,0.0124 0.002,0 0.006,-0.006 0.01,-0.0124 0.004,-0.007 0.006,-0.0123 0.004,-0.0123 z m -6.58853,0.0494 c -0.003,0 0.003,0.0113 0.0122,0.0233 0.0109,0.0138 0.0116,0.008 0.002,-0.008 -0.006,-0.009 -0.0117,-0.0155 -0.0132,-0.0155 z m 0.10851,0.14528 0.0599,0.0602 c 0.0557,0.056 0.0634,0.063 0.0634,0.0585 0,-9.7e-4 -0.0278,-0.028 -0.0616,-0.0602 z m 6.33702,0.003 c -0.002,0 -0.03,0.0264 -0.0629,0.0587 -0.0328,0.0323 -0.0585,0.0587 -0.0567,0.0587 0.002,0 0.0301,-0.0264 0.063,-0.0587 0.0329,-0.0323 0.0583,-0.0587 0.0566,-0.0587 z m -0.22093,0.19432 c 0,-0.002 -0.02,0.0101 -0.0443,0.0259 -0.0244,0.0158 -0.0443,0.0299 -0.0443,0.0313 0,0.003 0.008,-0.001 0.0523,-0.0303 0.02,-0.0131 0.0363,-0.0252 0.0363,-0.0268 z m -5.87273,0.01 c -3e-4,3.2e-4 0.002,0.003 0.006,0.008 0.008,0.0103 0.0135,0.0135 0.0135,0.008 0,-0.001 -0.005,-0.006 -0.0111,-0.0109 -0.005,-0.004 -0.007,-0.006 -0.008,-0.005 z m 0.0258,0.0202 c -2.4e-4,3.9e-4 0.003,0.003 0.009,0.007 0.0129,0.0101 0.0162,0.0115 0.0162,0.007 0,-0.002 -0.006,-0.006 -0.0142,-0.01 -0.006,-0.003 -0.0103,-0.005 -0.0105,-0.004 z m 0.0505,0.0308 c -2.3e-4,3.8e-4 0.003,0.003 0.009,0.007 0.0129,0.0101 0.0161,0.0115 0.0161,0.007 h -1.5e-4 c 0,-0.002 -0.006,-0.006 -0.0142,-0.01 -0.006,-0.003 -0.0103,-0.005 -0.0105,-0.004 z m 5.69774,9.7e-4 c -0.002,6.7e-4 -0.006,0.002 -0.009,0.004 -0.007,0.004 -0.0125,0.008 -0.0125,0.01 0,0.002 0.006,1.2e-4 0.0125,-0.004 0.007,-0.004 0.0127,-0.008 0.0127,-0.01 0,-8.9e-4 -8.1e-4,-7.9e-4 -0.004,-1.5e-4 z m -0.0405,0.025 c 0,-0.002 -0.009,10e-4 -0.0189,0.007 -0.0104,0.005 -0.0189,0.0109 -0.0189,0.0126 0,0.002 0.009,-10e-4 0.0189,-0.006 0.0104,-0.005 0.0189,-0.011 0.0189,-0.0127 z m -5.61307,1.5e-4 c -3e-4,10e-4 0.005,0.006 0.0169,0.0121 0.0199,0.0105 0.0206,0.0107 0.0206,0.007 0,-0.002 -0.009,-0.007 -0.0189,-0.0124 -0.0119,-0.006 -0.0181,-0.008 -0.0185,-0.006 z m 0.0848,0.0408 c -0.004,0 8.1e-4,0.004 0.01,0.009 0.009,0.005 0.0187,0.009 0.0222,0.009 0.003,0 -0.002,-0.004 -0.01,-0.009 -0.009,-0.005 -0.0186,-0.009 -0.0222,-0.009 z m 5.44278,0 c -0.004,0 -0.0135,0.004 -0.0222,0.009 -0.009,0.005 -0.013,0.009 -0.009,0.009 0.003,0 0.0134,-0.004 0.0222,-0.009 0.009,-0.005 0.013,-0.009 0.009,-0.009 z m -5.16822,0.0992 c -0.002,-9e-5 -0.005,3.2e-4 -0.007,10e-4 -0.005,0.002 -0.004,0.004 0.004,0.004 0.006,2.6e-4 0.0103,-10e-4 0.008,-0.003 -8.1e-4,-0.001 -0.003,-0.002 -0.005,-0.002 z m 4.89914,0 c -0.002,-9e-5 -0.005,3.2e-4 -0.007,10e-4 -0.005,0.002 -0.004,0.004 0.004,0.004 0.006,2.6e-4 0.0104,-10e-4 0.008,-0.003 -8.1e-4,-0.001 -0.003,-0.002 -0.006,-0.002 z m -4.798,0.0248 c -0.002,-9e-5 -0.005,1.7e-4 -0.007,10e-4 -0.005,0.002 -0.004,0.004 0.004,0.004 0.006,2.7e-4 0.0103,-10e-4 0.008,-0.003 v -1.5e-4 c -6.1e-4,-10e-4 -0.003,-10e-4 -0.005,-0.002 z m 4.69686,0 c -0.002,-9e-5 -0.005,1.7e-4 -0.007,10e-4 -0.005,0.002 -0.004,0.004 0.004,0.004 0.006,2.7e-4 0.0103,-10e-4 0.008,-0.003 v -1.5e-4 c -0.002,-10e-4 -0.003,-10e-4 -0.005,-0.002 z m -4.67115,0.006 c -0.003,0 -0.006,3.6e-4 -0.008,10e-4 -0.004,0.002 -8.1e-4,0.003 0.008,0.003 0.009,0 0.0124,-10e-4 0.008,-0.003 -0.002,-8.1e-4 -0.005,-10e-4 -0.008,-10e-4 z m 4.64575,0 c -0.002,-9e-5 -0.005,3.3e-4 -0.006,10e-4 -0.005,0.002 -0.004,0.003 0.004,0.004 0.006,2.7e-4 0.0104,-10e-4 0.008,-0.003 -8.1e-4,-0.001 -0.003,-0.002 -0.006,-0.002 z m -4.6147,0.006 c -0.002,-9e-5 -0.005,3.3e-4 -0.006,0.001 -0.005,0.002 -0.004,0.003 0.004,0.004 0.006,2.7e-4 0.0104,-10e-4 0.008,-0.003 -0.002,-10e-4 -0.003,-0.002 -0.006,-0.002 z m 4.58319,0 c -0.002,-9e-5 -0.005,3.3e-4 -0.007,0.001 -0.005,0.002 -0.004,0.003 0.004,0.004 0.006,2.7e-4 0.0104,-10e-4 0.008,-0.003 -8.1e-4,-10e-4 -0.003,-0.002 -0.006,-0.002 z m -4.55105,0.006 c -0.003,0 -0.006,3.6e-4 -0.008,10e-4 -0.004,0.002 -8.1e-4,0.003 0.008,0.003 0.009,0 0.0124,-10e-4 0.008,-0.003 -0.002,-8.1e-4 -0.005,-10e-4 -0.008,-10e-4 z m 4.51357,0 c -0.003,0 -0.006,3.6e-4 -0.008,10e-4 -0.004,0.002 -0.002,0.003 0.008,0.003 0.009,0 0.0124,-10e-4 0.008,-0.003 -0.002,-8.1e-4 -0.005,-10e-4 -0.008,-10e-4 z m -4.47562,0.006 c -0.003,0 -0.006,3.6e-4 -0.008,10e-4 -0.004,0.002 -6.1e-4,0.003 0.008,0.003 0.009,0 0.0124,-0.001 0.008,-0.003 -0.002,-8.1e-4 -0.005,-10e-4 -0.008,-10e-4 z m 4.43767,0 c -0.003,0 -0.006,3.6e-4 -0.008,10e-4 -0.004,0.002 -8.1e-4,0.003 0.008,0.003 0.009,0 0.0124,-0.001 0.008,-0.003 -0.002,-8.1e-4 -0.005,-10e-4 -0.008,-10e-4 z m -4.39407,0.006 c -0.004,-4e-5 -0.007,2.9e-4 -0.0102,10e-4 -0.006,0.002 -0.003,0.003 0.008,0.003 0.0104,1.3e-4 0.0155,-10e-4 0.0113,-0.003 -0.002,-8.9e-4 -0.006,-10e-4 -0.009,-10e-4 z m 4.3555,0 c -0.004,-4e-5 -0.007,2.9e-4 -0.0102,10e-4 -0.006,0.002 -0.003,0.003 0.008,0.003 0.0104,1.3e-4 0.0155,-10e-4 0.0113,-0.003 -0.002,-8.9e-4 -0.006,-10e-4 -0.009,-10e-4 z m -4.30422,0.006 c -0.004,0 -0.008,4.5e-4 -0.011,0.001 -0.006,0.002 -8.1e-4,0.003 0.011,0.003 0.0121,0 0.0172,-10e-4 0.0111,-0.003 -0.003,-7.9e-4 -0.007,-0.001 -0.0111,-0.001 z m 3.64267,0 c -0.0189,8.9e-4 -0.013,0.004 0.0147,0.0143 0.0307,0.011 0.0591,0.0129 0.0344,0.002 l -0.0159,-0.007 0.0189,-0.005 c 0.0141,-0.003 0.008,-0.005 -0.0248,-0.005 -0.012,-2e-4 -0.0211,-2.6e-4 -0.0274,0 z m 0.60542,0 c -0.004,0 -0.008,4.5e-4 -0.0111,0.001 -0.006,0.002 -0.002,0.003 0.0111,0.003 0.0122,0 0.0171,-10e-4 0.011,-0.003 -0.003,-7.9e-4 -0.007,-0.001 -0.011,-0.001 z m -3.66965,4.8e-4 c -0.032,1.6e-4 -0.039,10e-4 -0.0252,0.005 l 0.0189,0.005 -0.0159,0.007 c -0.0154,0.007 -0.0153,0.007 0.004,0.004 0.0109,-0.002 0.0294,-0.007 0.0411,-0.012 0.0213,-0.009 0.0212,-0.009 -0.0231,-0.009 z m -0.0861,0.006 c -0.006,-2e-5 -0.0118,3.6e-4 -0.0166,10e-4 -0.01,0.001 -0.003,0.003 0.0142,0.003 0.0174,5e-5 0.0252,-10e-4 0.0174,-0.003 -0.003,-7.3e-4 -0.009,-10e-4 -0.015,-10e-4 z m 3.26808,0 c -0.006,-2e-5 -0.0117,3.6e-4 -0.0165,10e-4 -0.01,0.001 -0.003,0.003 0.0142,0.003 0.0174,5e-5 0.0253,-10e-4 0.0176,-0.003 -0.004,-7.3e-4 -0.009,-10e-4 -0.0152,-10e-4 z m -3.69803,1.5e-4 c -0.005,-2e-5 -0.009,3.3e-4 -0.0133,10e-4 -0.008,10e-4 -0.003,0.003 0.011,0.003 0.0139,7e-5 0.0203,-10e-4 0.0142,-0.003 -0.003,-7.9e-4 -0.007,-10e-4 -0.012,-10e-4 z m 4.12799,0 c -0.005,-2e-5 -0.009,3.3e-4 -0.0134,10e-4 -0.008,10e-4 -0.003,0.003 0.011,0.003 0.0139,7e-5 0.0203,-10e-4 0.0142,-0.003 -0.003,-7.9e-4 -0.007,-10e-4 -0.012,-10e-4 z m -3.65994,0.0186 c -0.002,-9e-5 -0.005,3.3e-4 -0.006,10e-4 -0.005,0.002 -0.004,0.003 0.004,0.004 0.006,2.6e-4 0.0104,-0.001 0.008,-0.003 -0.002,-10e-4 -0.003,-0.002 -0.006,-0.002 z m 3.19235,0 c -0.002,-9e-5 -0.005,3.3e-4 -0.007,10e-4 -0.005,0.002 -0.004,0.003 0.004,0.004 0.006,2.6e-4 0.0104,-0.001 0.008,-0.003 -0.002,-10e-4 -0.003,-0.002 -0.006,-0.002 z m -3.21759,0.006 c -0.002,-9e-5 -0.005,3.3e-4 -0.007,10e-4 -0.005,0.002 -0.004,0.003 0.004,0.004 0.006,2.6e-4 0.0104,-10e-4 0.008,-0.003 -0.002,-10e-4 -0.003,-0.002 -0.006,-0.002 z m 3.24283,0 c -0.002,-9e-5 -0.005,3.3e-4 -0.006,10e-4 -0.005,0.002 -0.004,0.003 0.004,0.004 0.006,2.6e-4 0.0104,-10e-4 0.008,-0.003 -0.002,-10e-4 -0.003,-0.002 -0.006,-0.002 z m -3.26808,0.006 c -0.002,-9e-5 -0.005,3.2e-4 -0.007,10e-4 -0.005,0.002 -0.004,0.004 0.004,0.004 0.006,2.6e-4 0.0103,-10e-4 0.008,-0.003 -6.1e-4,-0.001 -0.003,-0.002 -0.005,-0.002 z m 3.32501,0.006 c -0.002,-9e-5 -0.005,1.7e-4 -0.006,0.001 -0.005,0.002 -0.004,0.004 0.004,0.004 0.006,2.7e-4 0.0104,-10e-4 0.008,-0.003 -8.1e-4,-10e-4 -0.003,-0.002 -0.006,-0.002 z m 0.0254,0.006 c -0.002,-9e-5 -0.005,3.3e-4 -0.007,10e-4 -0.005,0.002 -0.004,0.003 0.004,0.004 0.006,2.6e-4 0.0103,-0.001 0.008,-0.003 -8.1e-4,-10e-4 -0.003,-0.002 -0.005,-0.002 z m -3.47694,0.0185 c -0.002,-9e-5 -0.005,3.2e-4 -0.006,0.001 -0.005,0.002 -0.004,0.003 0.004,0.004 0.006,2.7e-4 0.0104,-0.001 0.008,-0.003 -8.1e-4,-10e-4 -0.003,-0.002 -0.006,-0.002 z m 3.54641,0 c -0.002,-9e-5 -0.005,3.2e-4 -0.006,0.001 -0.005,0.002 -0.004,0.003 0.003,0.004 0.006,2.7e-4 0.0104,-0.001 0.008,-0.003 -0.002,-10e-4 -0.003,-0.002 -0.006,-0.002 z m -3.59063,0.0123 c -0.002,-9e-5 -0.005,3.2e-4 -0.007,10e-4 -0.005,0.002 -0.004,0.004 0.004,0.004 0.006,2.7e-4 0.0104,-0.001 0.008,-0.003 v -1.6e-4 c -0.002,-0.001 -0.003,-0.002 -0.005,-0.002 z m 3.63484,0 c -0.002,-9e-5 -0.005,3.2e-4 -0.006,10e-4 -0.005,0.002 -0.004,0.004 0.004,0.004 0.006,2.7e-4 0.0104,-0.001 0.008,-0.003 v -1.6e-4 c -0.002,-0.001 -0.003,-0.002 -0.006,-0.002 z m -3.69803,0.0185 c -0.002,-9e-5 -0.005,3.3e-4 -0.007,0.001 -0.005,0.002 -0.004,0.004 0.004,0.004 0.006,2.7e-4 0.0104,-0.001 0.008,-0.003 v -1.5e-4 c -0.002,-0.001 -0.003,-0.002 -0.005,-0.002 z m 3.76122,0 c -0.002,-9e-5 -0.005,3.3e-4 -0.006,0.001 -0.005,0.002 -0.004,0.004 0.004,0.004 0.006,2.7e-4 0.0104,-0.001 0.008,-0.003 v -1.5e-4 c -0.002,-0.001 -0.003,-0.002 -0.006,-0.002 z m -3.83978,0.0242 c -0.004,0 -0.0104,0.003 -0.0156,0.006 -0.006,0.003 -0.006,0.006 -0.003,0.006 0.004,0 0.0106,-0.003 0.0159,-0.006 0.006,-0.003 0.006,-0.006 0.003,-0.006 z m -0.0694,0.0247 c -0.004,0 -0.0106,0.003 -0.0159,0.006 -0.006,0.003 -0.006,0.006 -0.003,0.006 0.004,0 0.0106,-0.003 0.0159,-0.006 0.006,-0.003 0.006,-0.006 0.003,-0.006 z m 4.05209,0 c -0.004,0 -0.002,0.003 0.003,0.006 0.006,0.003 0.0124,0.006 0.0159,0.006 0.004,0 0.002,-0.003 -0.003,-0.006 -0.006,-0.003 -0.0123,-0.006 -0.0159,-0.006 z m -4.08377,0.0124 c -0.004,0 -0.0105,0.003 -0.0157,0.006 -0.006,0.003 -0.006,0.006 -0.003,0.006 0.004,0 0.0106,-0.003 0.0159,-0.006 0.006,-0.003 0.006,-0.006 0.003,-0.006 z m -0.0315,0.0123 c -0.004,0 -0.0106,0.003 -0.0159,0.006 -0.006,0.003 -0.006,0.006 -0.003,0.006 0.004,0 0.0106,-0.003 0.0159,-0.006 0.006,-0.003 0.006,-0.006 0.003,-0.006 z m 4.17847,0 c -0.004,0 -0.002,0.003 0.003,0.006 0.006,0.003 0.0124,0.006 0.0159,0.006 0.004,0 0.002,-0.003 -0.003,-0.006 -0.006,-0.003 -0.0123,-0.006 -0.0159,-0.006 z m -4.22269,0.0185 c -0.004,0 -0.0106,0.003 -0.0159,0.006 -0.006,0.003 -0.006,0.006 -0.003,0.006 0.004,0 0.0105,-0.003 0.0157,-0.006 0.006,-0.003 0.006,-0.006 0.003,-0.006 z m 4.26691,0 c -0.004,0 -0.002,0.003 0.003,0.006 0.006,0.003 0.0124,0.006 0.0159,0.006 0.004,0 0.002,-0.003 -0.003,-0.006 -0.006,-0.003 -0.0124,-0.006 -0.0159,-0.006 z m 0.0555,0.0248 c -0.004,2.4e-4 0.0849,0.0476 0.0916,0.0489 0.002,1.7e-4 0.002,-0.001 0.002,-0.003 -3.1e-4,-0.004 -0.0863,-0.0466 -0.093,-0.0461 z m -4.37886,10e-4 c -0.003,-0.003 -0.0795,0.0346 -0.0795,0.0388 0,0.002 0.0184,-0.006 0.0409,-0.0169 0.0224,-0.0108 0.0399,-0.0207 0.0386,-0.0219 z m 4.50415,0.0619 c -2.3e-4,3.9e-4 0.003,0.003 0.009,0.007 0.0129,0.0101 0.0161,0.0115 0.0161,0.007 h -1.6e-4 c 0,-0.002 -0.006,-0.006 -0.0141,-0.01 -0.006,-0.003 -0.0103,-0.005 -0.0105,-0.004 z m -4.63163,7.9e-4 c -0.002,5.9e-4 -0.006,0.002 -0.009,0.004 -0.007,0.004 -0.0127,0.008 -0.0127,0.01 0,0.002 0.006,1.1e-4 0.0127,-0.003 0.007,-0.004 0.0127,-0.008 0.0127,-0.01 0,-8.9e-4 -0.002,-9.7e-4 -0.004,-2.9e-4 z m 4.69483,0.0363 c -2.5e-4,3.9e-4 0.003,0.003 0.009,0.007 0.0129,0.0101 0.0162,0.0115 0.0162,0.007 0,-0.002 -0.006,-0.006 -0.0142,-0.01 -0.006,-0.003 -0.0103,-0.005 -0.0105,-0.004 z m -4.75802,7.9e-4 c -0.002,6.7e-4 -0.006,0.002 -0.009,0.004 -0.007,0.004 -0.0128,0.008 -0.0128,0.01 0,0.002 0.006,1.1e-4 0.0128,-0.004 0.007,-0.004 0.0127,-0.008 0.0127,-0.01 0,-8e-4 -0.002,-9.7e-4 -0.004,-2.9e-4 z m -0.0469,0.0308 c 0,-0.002 -0.009,0.003 -0.0189,0.0101 -0.0104,0.007 -0.0189,0.0145 -0.0189,0.0162 0,0.002 0.008,-0.003 0.0189,-0.0101 0.0104,-0.007 0.0189,-0.0146 0.0189,-0.0163 z m 4.87389,0.0101 c -3e-4,3.2e-4 0.002,0.003 0.006,0.008 0.008,0.0103 0.0133,0.0135 0.0133,0.008 h 1.5e-4 c 0,-10e-4 -0.005,-0.006 -0.0111,-0.0107 -0.005,-0.004 -0.007,-0.006 -0.008,-0.005 z m 0.0724,0.0526 0.0152,0.017 c 0.0153,0.0169 0.0236,0.0224 0.0163,0.0107 -0.002,-10e-4 -0.002,-0.003 -0.002,-0.004 l -0.015,-0.0117 z m -5.08228,0.0369 -0.0489,0.0463 c -0.0269,0.0254 -0.0491,0.0469 -0.0491,0.0478 0,0.004 0.006,-0.002 0.0508,-0.0461 z m 5.13027,0.003 c -0.002,0 0.018,0.0209 0.0439,0.0464 0.0259,0.0255 0.0486,0.0463 0.0503,0.0463 0.002,0 -0.0181,-0.0208 -0.044,-0.0463 -0.0259,-0.0255 -0.0485,-0.0464 -0.0502,-0.0464 z m 0.0913,0.0958 0.0154,0.017 c 0.0143,0.0159 0.0195,0.0199 0.0195,0.015 0,-10e-4 -0.008,-0.009 -0.0174,-0.017 z m -5.38648,0.0858 c -2.9e-4,-3.3e-4 -0.002,-2.8e-4 -0.002,2.9e-4 -0.007,0.004 -0.022,0.0282 -0.0174,0.0282 8.1e-4,0 0.007,-0.007 0.0134,-0.0163 0.004,-0.007 0.006,-0.0113 0.006,-0.0122 z m -0.0242,0.0346 c -0.002,0 -0.006,0.006 -0.01,0.0124 -0.004,0.007 -0.006,0.0124 -0.004,0.0124 0.002,0 0.006,-0.006 0.01,-0.0124 0.004,-0.007 0.006,-0.0124 0.004,-0.0124 z m 5.50502,0 c -0.002,0 -1.2e-4,0.006 0.004,0.0124 0.004,0.007 0.008,0.0124 0.0101,0.0124 0.002,0 1.3e-4,-0.006 -0.004,-0.0124 -0.004,-0.007 -0.008,-0.0124 -0.01,-0.0124 z m 0.042,0.0815 c -6.1e-4,10e-4 3.1e-4,0.006 0.004,0.0141 0.002,0.005 0.006,0.009 0.006,0.007 0.002,-0.002 -7e-5,-0.008 -0.004,-0.0141 -0.004,-0.006 -0.006,-0.008 -0.006,-0.007 z m -5.63125,0.10007 c -6.1e-4,6.7e-4 -6.1e-4,0.003 -8.1e-4,0.006 -2.7e-4,0.006 8.1e-4,0.0102 0.003,0.008 0.002,-0.002 0.002,-0.008 6.1e-4,-0.012 h -1.6e-4 c -8.1e-4,-0.002 -0.002,-0.003 -0.003,-0.003 z m 5.67045,0 c -6e-4,6.7e-4 -8.1e-4,0.003 -8.1e-4,0.006 -2.6e-4,0.006 8.1e-4,0.0102 0.003,0.008 0.002,-0.002 0.002,-0.008 6.1e-4,-0.012 -0.002,-0.002 -0.002,-0.003 -0.002,-0.003 z m -5.67672,0.0247 c -6.1e-4,6.7e-4 -8.1e-4,0.003 -8.1e-4,0.006 -2.7e-4,0.006 8.1e-4,0.0102 0.003,0.008 0.002,-0.002 0.002,-0.007 6e-4,-0.0118 -8e-4,-0.002 -0.002,-0.003 -0.003,-0.003 z m 5.68299,0 c -6e-4,6.7e-4 -0.002,0.003 -0.002,0.006 -2.7e-4,0.006 0.002,0.0102 0.003,0.008 0.002,-0.002 0.002,-0.007 6.1e-4,-0.0118 -0.002,-0.002 -0.002,-0.003 -0.003,-0.003 z m -5.68801,0.0253 c -0.002,-4.2e-4 -0.002,0.003 -0.002,0.009 0,0.009 8e-4,0.0119 0.003,0.008 0.002,-0.004 0.002,-0.0112 0,-0.0155 -3e-4,-0.001 -8.1e-4,-0.002 -8.1e-4,-0.002 z m 5.69445,0.006 c -6.1e-4,6.7e-4 -0.002,0.003 -0.002,0.006 -2.8e-4,0.006 0.002,0.01 0.003,0.008 0.002,-0.002 0.002,-0.007 6.1e-4,-0.0118 h -1.5e-4 c -8.1e-4,-0.003 -0.002,-0.003 -0.002,-0.003 z m -2.81445,0.0234 c -6e-4,10e-4 6.1e-4,0.006 0.003,0.0141 0.002,0.005 0.006,0.009 0.006,0.007 8.1e-4,-0.002 -5e-5,-0.008 -0.004,-0.0143 -0.004,-0.006 -0.006,-0.008 -0.006,-0.007 z m -0.0655,3e-4 c -8.1e-4,5.6e-4 -0.003,0.002 -0.004,0.005 -0.004,0.005 -0.006,0.0121 -0.006,0.0155 0,0.003 0.002,0.002 0.006,-0.003 0.004,-0.005 0.006,-0.0121 0.006,-0.0155 0,-0.002 -6.1e-4,-0.002 -0.002,-0.002 z m -2.82057,0.01 c -0.002,-10e-4 -0.002,0.003 -0.002,0.0104 -1.2e-4,0.0102 8.1e-4,0.0151 0.003,0.0109 0.002,-0.004 0.002,-0.0125 1.7e-4,-0.0186 -3.1e-4,-0.002 -6.1e-4,-0.002 -8.1e-4,-0.003 z m 5.7084,1.6e-4 c -0.002,-6e-4 -0.002,0.004 -0.002,0.0133 0,0.0119 0.002,0.0167 0.003,0.0107 8.1e-4,-0.006 8.1e-4,-0.0157 0,-0.0216 -3e-4,-10e-4 -6e-4,-0.002 -0.002,-0.002 z m -5.7142,0.0676 c -0.002,-8.9e-4 -0.002,0.0123 -0.002,0.0353 2e-5,0.0306 0.002,0.0425 0.002,0.0262 0.002,-0.0162 0.002,-0.0413 -1.5e-4,-0.0556 h 1.5e-4 c -3e-4,-0.004 -6e-4,-0.005 -8.1e-4,-0.006 z m 5.72722,0.006 c 2.8e-4,6.7e-4 6e-4,0.003 6e-4,0.006 8.1e-4,0.0145 8.1e-4,0.0368 -1.5e-4,0.0495 -8.1e-4,0.0127 -0.002,8.1e-4 -0.002,-0.0264 0,-0.0204 6.1e-4,-0.0314 0.002,-0.0294 z m -2.77838,0.0769 c -6.1e-4,10e-4 3e-4,0.006 0.004,0.0139 0.002,0.006 0.006,0.009 0.006,0.007 8e-4,-0.002 -6e-5,-0.008 -0.004,-0.0143 h 1.5e-4 c -0.003,-0.006 -0.006,-0.008 -0.006,-0.007 z m -0.17939,1.5e-4 c -0.002,5.6e-4 -0.003,0.002 -0.004,0.005 -0.004,0.005 -0.006,0.0121 -0.006,0.0155 0,0.003 0.003,0.002 0.006,-0.003 0.003,-0.005 0.006,-0.0121 0.006,-0.0155 0,-0.002 -6.1e-4,-0.002 -0.002,-0.002 z m 2.94475,0.0345 c -0.002,-10e-4 -0.002,0.003 -0.002,0.0104 -1.3e-4,0.0102 0.002,0.0152 0.003,0.011 0.002,-0.004 0.002,-0.0125 3.1e-4,-0.0186 h -1.6e-4 c -3e-4,-0.001 -6.1e-4,-0.003 -0.002,-0.003 z m -2.74012,0.0333 c -6.1e-4,10e-4 6.1e-4,0.006 0.003,0.0141 0.002,0.005 0.006,0.009 0.006,0.007 8.1e-4,-0.002 -5e-5,-0.008 -0.004,-0.0141 -0.004,-0.006 -0.006,-0.008 -0.006,-0.007 z m -0.22988,3e-4 c -0.002,5.6e-4 -0.003,0.002 -0.004,0.005 -0.004,0.005 -0.006,0.0119 -0.006,0.0153 0,0.003 0.003,0.002 0.006,-0.003 0.004,-0.005 0.006,-0.0121 0.006,-0.0155 0,-0.002 -6.1e-4,-0.002 -0.002,-0.002 z m 2.96326,0.008 c -0.002,-4.1e-4 -0.002,0.003 -0.002,0.01 0,0.009 0.002,0.0121 0.003,0.008 0.002,-0.004 0.002,-0.0112 0,-0.0155 -6e-4,-10e-4 -6e-4,-0.002 -0.002,-0.002 z m -5.69679,0.006 c -6.1e-4,6.7e-4 -0.002,0.003 -0.002,0.006 -2.8e-4,0.006 0.002,0.0102 0.003,0.008 0.002,-0.002 0.002,-0.007 6e-4,-0.0118 h -1.5e-4 c -6.1e-4,-0.003 -0.002,-0.003 -0.002,-0.003 z m 0.006,0.031 c -6.1e-4,6.6e-4 -8.1e-4,0.003 -8.1e-4,0.006 -2.7e-4,0.006 8.1e-4,0.0102 0.003,0.008 0.002,-0.002 0.002,-0.008 6.1e-4,-0.012 -0.002,-0.002 -0.002,-0.003 -0.003,-0.003 z m 5.68299,0 c -6e-4,6.6e-4 -6e-4,0.003 -0.002,0.006 -2.7e-4,0.006 0.002,0.0102 0.003,0.008 0.002,-0.002 0.002,-0.008 6.1e-4,-0.012 -0.002,-0.002 -0.002,-0.003 -0.003,-0.003 z m -2.97469,0.005 c -0.002,5.6e-4 -0.003,0.002 -0.004,0.005 -0.004,0.005 -0.006,0.0121 -0.006,0.0155 0,0.003 0.003,0.002 0.006,-0.003 0.004,-0.005 0.006,-0.0121 0.006,-0.0155 0,-0.002 -6.1e-4,-0.002 -0.002,-0.002 z m 2.96215,0.0441 c -6e-4,6.6e-4 -8.1e-4,0.003 -8.1e-4,0.006 -2.7e-4,0.006 8.1e-4,0.0102 0.003,0.008 0.002,-0.002 0.002,-0.007 6.1e-4,-0.0118 h -1.6e-4 c -8.1e-4,-0.002 -0.002,-0.003 -0.002,-0.003 z m -2.66266,0.036 c -6.1e-4,10e-4 3e-4,0.006 0.004,0.0139 0.002,0.005 0.006,0.009 0.006,0.007 8.1e-4,-0.002 -5e-5,-0.008 -0.004,-0.0143 -0.004,-0.006 -0.006,-0.008 -0.006,-0.007 z m -2.96482,0.0618 c -6.1e-4,10e-4 6e-4,0.006 0.004,0.014 0.002,0.005 0.006,0.009 0.006,0.007 0.002,-0.002 -7e-5,-0.008 -0.004,-0.0143 -0.003,-0.006 -0.006,-0.008 -0.006,-0.007 z m 5.59847,1.6e-4 c -0.002,5.6e-4 -0.003,0.002 -0.004,0.005 -0.004,0.005 -0.006,0.0121 -0.006,0.0155 0,0.003 0.003,0.002 0.006,-0.003 0.004,-0.005 0.006,-0.0121 0.006,-0.0155 0,-0.002 -6.1e-4,-0.002 -0.002,-0.002 z m -2.60214,0.0121 c -6e-4,10e-4 6.1e-4,0.006 0.004,0.0141 0.002,0.005 0.006,0.009 0.006,0.007 0.002,-0.002 -6e-5,-0.008 -0.004,-0.0143 -0.003,-0.006 -0.006,-0.008 -0.006,-0.007 z m -0.39419,3e-4 c -8.1e-4,5.6e-4 -0.003,0.002 -0.004,0.005 -0.004,0.005 -0.006,0.0121 -0.006,0.0155 0,0.003 0.003,0.002 0.006,-0.003 0.004,-0.005 0.006,-0.0121 0.006,-0.0155 0,-0.002 -6e-4,-0.002 -0.002,-0.002 z m -2.58945,0.0182 c -6e-4,0.001 3.1e-4,0.006 0.004,0.0141 0.002,0.005 0.006,0.009 0.006,0.007 0.002,-0.002 -6e-5,-0.008 -0.004,-0.0142 -0.003,-0.006 -0.006,-0.008 -0.006,-0.007 z m 5.56681,0.0127 c -8.1e-4,5.6e-4 -0.002,0.002 -0.004,0.005 -0.004,0.005 -0.006,0.0119 -0.006,0.0153 0,0.003 0.003,0.002 0.006,-0.003 0.004,-0.005 0.006,-0.0121 0.006,-0.0155 0,-0.002 -6.1e-4,-0.002 -0.002,-0.002 z m -2.56419,0.0121 c -6.1e-4,10e-4 6.1e-4,0.006 0.004,0.0139 0.002,0.006 0.006,0.009 0.006,0.007 0.002,-0.002 -6e-5,-0.008 -0.004,-0.0142 -0.003,-0.006 -0.006,-0.008 -0.006,-0.007 z m -0.43215,1.5e-4 c -0.002,5.7e-4 -0.003,0.002 -0.004,0.005 -0.003,0.005 -0.006,0.0121 -0.006,0.0155 0,0.003 0.003,0.002 0.006,-0.003 0.004,-0.005 0.006,-0.0121 0.006,-0.0155 0,-0.002 -6.1e-4,-0.002 -0.002,-0.002 z m 0.45191,0.0428 c -6.1e-4,-3.9e-4 -0.002,-2.9e-4 -0.002,3e-4 -3.1e-4,0.007 0.0143,0.0361 0.0172,0.0334 8.1e-4,-10e-4 -0.002,-0.0106 -0.007,-0.0202 -0.004,-0.007 -0.007,-0.0124 -0.009,-0.0135 z m -0.47637,0.0133 c -0.002,1.4e-4 -0.005,0.004 -0.008,0.0104 -0.005,0.009 -0.009,0.0184 -0.009,0.0218 0,0.003 0.004,-8.1e-4 0.009,-0.009 0.005,-0.009 0.009,-0.0182 0.009,-0.0216 0,-8.1e-4 -1.7e-4,-10e-4 -6.1e-4,-10e-4 z m -2.493,0.0228 c -0.002,0 0.002,0.008 0.006,0.0185 0.006,0.0102 0.0113,0.0185 0.013,0.0185 0.002,0 -0.002,-0.008 -0.006,-0.0185 -0.006,-0.0102 -0.0111,-0.0185 -0.0129,-0.0185 z m 5.46864,0 c -0.002,0 -0.007,0.008 -0.0129,0.0185 -0.006,0.0102 -0.009,0.0185 -0.006,0.0185 0.002,0 0.007,-0.008 0.013,-0.0185 0.006,-0.0102 0.008,-0.0185 0.006,-0.0185 z m -5.44356,0.0432 c -0.002,0 -1.2e-4,0.006 0.004,0.0124 0.004,0.007 0.008,0.0124 0.01,0.0124 0.002,0 1.2e-4,-0.006 -0.003,-0.0124 -0.004,-0.007 -0.008,-0.0124 -0.01,-0.0124 z m 5.41848,0 c -0.002,0 -0.006,0.006 -0.01,0.0124 -0.004,0.007 -0.006,0.0124 -0.004,0.0124 0.002,0 0.006,-0.006 0.01,-0.0124 0.004,-0.007 0.006,-0.0124 0.004,-0.0124 z m -2.98882,0.015 c -8.1e-4,-10e-4 -0.0142,0.0214 -0.0289,0.0501 -0.0146,0.0288 -0.0252,0.0523 -0.0235,0.0523 0.002,0 0.0146,-0.0224 0.0289,-0.0499 0.0142,-0.0275 0.0248,-0.0512 0.0235,-0.0524 z m 0.55916,0 c -0.003,0.003 0.0482,0.10237 0.0524,0.10237 0.002,0 -0.009,-0.0235 -0.0235,-0.0523 -0.0146,-0.0287 -0.0276,-0.0513 -0.0289,-0.0501 z m -2.95792,0.0345 c -0.003,0 0.003,0.0112 0.0124,0.0231 0.0109,0.0138 0.0116,0.008 8e-4,-0.008 h -1.6e-4 c -0.006,-0.008 -0.0116,-0.0155 -0.0132,-0.0155 z m 5.35605,4.4e-4 c -0.002,8.9e-4 -0.006,0.006 -0.0132,0.0158 -0.006,0.009 -0.008,0.0143 -0.004,0.012 0.004,-0.002 0.01,-0.01 0.0137,-0.0163 h -1.5e-4 c 0.005,-0.009 0.006,-0.0124 0.003,-0.0115 z m -5.3178,0.0552 c -0.002,0 0.003,0.008 0.0103,0.0186 0.007,0.0102 0.0149,0.0185 0.0167,0.0185 0.002,0 -0.003,-0.008 -0.0103,-0.0185 -0.007,-0.0102 -0.015,-0.0186 -0.0167,-0.0186 z m 5.28017,0 c -0.002,0 -0.009,0.008 -0.0166,0.0186 -0.007,0.0102 -0.0121,0.0185 -0.0104,0.0185 0.002,0 0.009,-0.008 0.0167,-0.0185 0.007,-0.0102 0.0121,-0.0186 0.0103,-0.0186 z m -5.25398,0.0402 0.012,0.0138 c 0.0113,0.0131 0.0165,0.0167 0.0165,0.0118 0,-10e-4 -0.006,-0.007 -0.0143,-0.0138 z m 5.22341,0.003 c -0.002,0 -0.008,0.006 -0.0146,0.0123 -0.006,0.007 -0.01,0.0124 -0.008,0.0124 0.002,0 0.008,-0.006 0.0147,-0.0124 0.006,-0.007 0.01,-0.0123 0.008,-0.0123 z m -2.9664,0.0123 c -0.002,0 -0.007,0.008 -0.0129,0.0186 -0.006,0.0102 -0.009,0.0185 -0.006,0.0185 0.002,0 0.007,-0.008 0.013,-0.0185 0.006,-0.0102 0.008,-0.0186 0.006,-0.0186 z m 0.71377,0 c -0.002,0 8.1e-4,0.008 0.006,0.0186 0.006,0.0102 0.0113,0.0185 0.013,0.0185 0.002,0 -0.002,-0.008 -0.006,-0.0185 -0.006,-0.0102 -0.0111,-0.0186 -0.0129,-0.0186 z m 2.20229,0.0495 c -0.002,0 -0.01,0.007 -0.0179,0.0155 -0.008,0.009 -0.0135,0.0155 -0.0117,0.0155 0.002,0 0.01,-0.007 0.018,-0.0155 0.008,-0.008 0.0133,-0.0155 0.0116,-0.0155 z m -2.94757,0.006 c -0.002,0 -0.006,0.006 -0.01,0.0124 -0.004,0.007 -0.006,0.0124 -0.004,0.0124 0.002,0 0.006,-0.006 0.01,-0.0124 0.004,-0.007 0.006,-0.0124 0.004,-0.0124 z m 0.77664,0 c -0.002,0 4e-5,0.006 0.004,0.0124 0.004,0.007 0.008,0.0124 0.01,0.0124 0.002,0 1.2e-4,-0.006 -0.004,-0.0124 -0.004,-0.007 -0.008,-0.0124 -0.01,-0.0124 z m -0.79562,0.031 c -0.002,0 -0.006,0.006 -0.01,0.0124 -0.004,0.007 -0.006,0.0122 -0.004,0.0122 0.002,0 0.006,-0.006 0.01,-0.0122 0.003,-0.007 0.006,-0.0124 0.003,-0.0124 z m 0.81459,0 c -0.002,0 -1.1e-4,0.006 0.004,0.0124 0.004,0.007 0.008,0.0122 0.01,0.0122 0.002,0 1.2e-4,-0.006 -0.004,-0.0122 -0.004,-0.007 -0.008,-0.0124 -0.01,-0.0124 z m -0.8334,0.0308 c -0.002,0 -0.006,0.006 -0.01,0.0124 -0.004,0.007 -0.006,0.0124 -0.004,0.0124 0.002,0 0.006,-0.006 0.01,-0.0124 0.004,-0.007 0.006,-0.0124 0.004,-0.0124 z m 0.85238,0 c -0.002,0 -1.2e-4,0.006 0.004,0.0124 0.004,0.007 0.008,0.0124 0.01,0.0124 0.002,0 1.1e-4,-0.006 -0.004,-0.0124 -0.004,-0.007 -0.008,-0.0124 -0.01,-0.0124 z m -2.88846,0.0403 0.0505,0.0509 c 0.0468,0.0473 0.0537,0.0539 0.0537,0.0494 0,-8.9e-4 -0.0234,-0.0239 -0.052,-0.051 z m 4.92109,0.003 c -0.002,0 -0.0258,0.0222 -0.0535,0.0494 -0.0276,0.0272 -0.0489,0.0495 -0.0472,0.0495 0.002,0 0.0258,-0.0223 0.0535,-0.0495 0.0276,-0.0272 0.0489,-0.0494 0.0472,-0.0494 z m -2.91496,0.006 c -0.002,-10e-4 -0.0116,0.0124 -0.0268,0.0355 -0.0129,0.0195 -0.0169,0.0278 -0.009,0.0185 0.008,-0.009 0.0198,-0.0251 0.026,-0.0354 0.007,-0.0122 0.0102,-0.0181 0.01,-0.0187 z m 0.91322,0 c -0.003,0 0.002,0.008 0.0248,0.0417 0.01,0.0144 0.0194,0.0262 0.0209,0.0262 0.002,0 -0.007,-0.0152 -0.0201,-0.0339 -0.0127,-0.0187 -0.0243,-0.034 -0.0257,-0.034 z m -2.79924,0.10192 0.0346,0.0356 c 0.0321,0.033 0.0381,0.0383 0.0381,0.0337 0,-10e-4 -0.0163,-0.0168 -0.0364,-0.0354 z m 4.68071,0.003 c -0.002,0 -0.0185,0.0153 -0.0375,0.034 -0.0188,0.0187 -0.0329,0.034 -0.0312,0.034 0.002,0 0.0185,-0.0153 0.0375,-0.034 0.0189,-0.0187 0.0329,-0.034 0.0312,-0.034 z m -4.60482,0.065 0.0218,0.0231 c 0.0202,0.0216 0.0257,0.026 0.0257,0.0213 h -1.5e-4 c 0,-10e-4 -0.0106,-0.0114 -0.0237,-0.0232 z m 4.52862,0.003 c -0.002,0 -0.0128,0.01 -0.0246,0.0216 -0.0118,0.0119 -0.0199,0.0216 -0.0181,0.0216 0.002,0 0.0128,-0.01 0.0246,-0.0216 0.0118,-0.0119 0.0199,-0.0216 0.0181,-0.0216 z m -2.85977,0.0216 -0.0205,0.0181 c -0.0191,0.0169 -0.0234,0.0221 -0.0185,0.0221 0.002,0 0.0104,-0.009 0.0205,-0.0201 z m 1.19483,0 0.0185,0.0201 c 0.0173,0.0187 0.0226,0.0229 0.0226,0.0181 0,-0.001 -0.009,-0.0101 -0.0206,-0.0201 z m -2.81303,0.0186 0.0152,0.017 c 0.0143,0.0159 0.0195,0.0197 0.0195,0.0149 0,-10e-4 -0.008,-0.009 -0.0174,-0.0168 z m 4.42716,0.003 c -0.002,0 -0.01,0.007 -0.018,0.0155 -0.008,0.009 -0.0134,0.0155 -0.0116,0.0155 0.002,0 0.01,-0.007 0.018,-0.0155 0.008,-0.008 0.0134,-0.0155 0.0116,-0.0155 z m -1.57618,0.0216 0.063,0.0633 c 0.0587,0.0588 0.0665,0.0662 0.0665,0.0618 0,-9.7e-4 -0.0291,-0.0294 -0.0647,-0.0633 z m -1.27402,0.003 c -0.002,0 -0.0316,0.0279 -0.0662,0.0619 -0.0346,0.034 -0.0617,0.0618 -0.0599,0.0618 0.002,0 0.0316,-0.0278 0.0662,-0.0618 0.0346,-0.034 0.0617,-0.0619 0.0599,-0.0619 z m -1.50749,0.0279 0.012,0.014 c 0.0113,0.0131 0.0163,0.0166 0.0163,0.0116 0,-10e-4 -0.006,-0.007 -0.0142,-0.0138 z m 4.28791,0.003 c -0.002,0 -0.008,0.006 -0.0146,0.0124 -0.006,0.007 -0.01,0.0123 -0.008,0.0123 0.002,0 0.008,-0.005 0.0146,-0.0123 0.006,-0.007 0.01,-0.0124 0.008,-0.0124 z m -4.231,0.0423 0.0189,0.0158 c 0.0195,0.0163 0.0222,0.0179 0.0222,0.0133 0,-10e-4 -0.009,-0.009 -0.0205,-0.0159 z m 4.17534,0.003 c 0,-0.002 -0.009,0.003 -0.0189,0.0101 -0.0104,0.007 -0.0189,0.0146 -0.0189,0.0163 0,0.002 0.008,-0.003 0.0189,-0.0101 0.0104,-0.007 0.0189,-0.0145 0.0189,-0.0163 z m -0.0443,0.0314 c 0,-0.002 -0.02,0.0101 -0.0443,0.0259 -0.0244,0.0158 -0.0443,0.0299 -0.0443,0.0313 0,0.003 0.008,-10e-4 0.0522,-0.0303 0.02,-0.0131 0.0363,-0.0252 0.0363,-0.0268 z m -4.08377,1.5e-4 c 0,0.003 0.0829,0.0589 0.0869,0.0589 0.002,0 0.002,-9.7e-4 0.002,-0.002 -1.5e-4,-10e-4 -0.02,-0.0152 -0.0443,-0.031 -0.0244,-0.0158 -0.0443,-0.0274 -0.0443,-0.0258 z m 2.81978,0.0218 c -8.1e-4,-1.5e-4 -6e-4,0.002 0.002,0.006 0.002,10e-4 0.002,0.003 0.002,0.004 l 0.015,0.0117 0.0159,0.0122 -0.0154,-0.0168 c -0.01,-0.0106 -0.0165,-0.0168 -0.0185,-0.017 z m -1.55862,0.003 c -0.002,-4.7e-4 -0.006,0.003 -0.0128,0.009 -0.0204,0.0182 -0.0225,0.0255 -0.003,0.009 l 0.0137,-0.0112 c -1.7e-4,-10e-4 1.2e-4,-0.003 0.002,-0.005 6e-4,-10e-4 8e-4,-0.002 6e-4,-0.002 z m -1.16583,0.0357 c -2.3e-4,3.8e-4 0.002,0.003 0.009,0.007 0.013,0.0101 0.0161,0.0115 0.0161,0.007 h -1.5e-4 c 0,-0.002 -0.006,-0.006 -0.0142,-0.01 -0.006,-0.003 -0.0103,-0.005 -0.0105,-0.004 z m 3.88981,9.7e-4 c -0.002,6.7e-4 -0.006,0.002 -0.009,0.004 -0.007,0.004 -0.0127,0.008 -0.0127,0.01 0,0.002 0.006,1.1e-4 0.0127,-0.004 0.007,-0.004 0.0127,-0.008 0.0127,-0.01 0,-8.9e-4 -0.002,-8.9e-4 -0.004,-1.5e-4 z m -1.10562,0.009 0.0189,0.0159 c 0.0194,0.0163 0.0222,0.018 0.0222,0.0133 0,-10e-4 -0.009,-0.009 -0.0206,-0.0159 z m -1.67841,10e-4 c -3e-4,-3.3e-4 -0.003,0.001 -0.008,0.005 -0.006,0.005 -0.011,0.009 -0.011,0.0107 0,0.005 0.005,0.002 0.0134,-0.008 h 1.6e-4 c 0.004,-0.005 0.006,-0.007 0.006,-0.008 z m -1.0741,0.008 c -2.4e-4,3.9e-4 0.003,0.003 0.009,0.007 0.013,0.0101 0.0161,0.0115 0.0161,0.007 0,-0.002 -0.006,-0.006 -0.0142,-0.01 -0.006,-0.003 -0.0103,-0.005 -0.0105,-0.004 z m 3.82661,8.9e-4 c -0.002,6.7e-4 -0.006,0.002 -0.009,0.004 -0.007,0.004 -0.0127,0.008 -0.0127,0.01 0,0.002 0.006,1.1e-4 0.0127,-0.003 0.007,-0.004 0.0125,-0.008 0.0125,-0.01 0,-8.9e-4 -8.1e-4,-8.1e-4 -0.004,-1.6e-4 z m -0.0406,0.0251 c 0,-0.003 -0.10051,0.0445 -0.10694,0.0503 -0.008,0.008 0.012,-5.6e-4 0.0564,-0.0224 0.0278,-0.0136 0.0505,-0.0262 0.0505,-0.0279 z m -3.7297,0.006 c 0,0.004 0.0829,0.0458 0.0911,0.0463 0.003,1.6e-4 0.005,-7.3e-4 0.003,-0.002 v -1.6e-4 c -0.006,-0.006 -0.0944,-0.0469 -0.0944,-0.0441 z m 2.76301,0.005 c -2.4e-4,3.9e-4 0.003,0.003 0.009,0.007 0.0129,0.0101 0.0161,0.0115 0.0161,0.007 h -1.5e-4 c 0,-0.002 -0.006,-0.006 -0.0142,-0.01 -0.006,-0.003 -0.0103,-0.005 -0.0105,-0.004 z m -1.81217,7.9e-4 c -0.002,6.7e-4 -0.006,0.002 -0.009,0.004 -0.007,0.004 -0.0128,0.008 -0.0128,0.01 0,0.002 0.006,1.1e-4 0.0128,-0.004 0.007,-0.004 0.0127,-0.008 0.0127,-0.01 0,-8.9e-4 -0.002,-9.7e-4 -0.004,-2.9e-4 z m -0.0315,0.0186 c -0.002,6.6e-4 -0.006,0.002 -0.009,0.004 -0.007,0.004 -0.0128,0.008 -0.0128,0.01 0,0.002 0.006,1.1e-4 0.0128,-0.003 0.007,-0.004 0.0125,-0.008 0.0125,-0.01 0,-8.1e-4 -0.002,-9.7e-4 -0.004,-3e-4 z m 1.8752,5.9e-4 c -3e-4,0.001 0.006,0.006 0.0171,0.012 0.0199,0.0105 0.0205,0.0109 0.0205,0.007 h -1.5e-4 c 0,-0.002 -0.009,-0.007 -0.019,-0.0126 -0.0119,-0.006 -0.0181,-0.008 -0.0185,-0.006 z m -2.67756,0.0281 c -0.004,0 -0.002,0.003 0.003,0.006 0.006,0.003 0.0124,0.006 0.0159,0.006 0.004,0 0.002,-0.003 -0.003,-0.006 -0.006,-0.003 -0.0124,-0.006 -0.0159,-0.006 z m 3.48321,0 c -0.003,0 -0.0106,0.003 -0.0159,0.006 -0.006,0.003 -0.006,0.006 -0.003,0.006 0.004,0 0.0105,-0.003 0.0157,-0.006 0.006,-0.003 0.006,-0.006 0.003,-0.006 z m -2.76255,0.0124 c -0.004,0 -0.0106,0.003 -0.0159,0.006 -0.006,0.003 -0.006,0.006 -0.003,0.006 0.004,0 0.0106,-0.003 0.0159,-0.006 0.006,-0.003 0.006,-0.006 0.003,-0.006 z m 2.73087,0 c -0.004,0 -0.0106,0.003 -0.0159,0.006 -0.006,0.003 -0.006,0.006 -0.003,0.006 0.004,0 0.0106,-0.003 0.0159,-0.006 0.006,-0.003 0.006,-0.006 0.003,-0.006 z m -0.11116,0.0377 c -0.002,-9e-5 -0.005,3.3e-4 -0.006,10e-4 -0.005,0.002 -0.004,0.003 0.004,0.004 0.006,2.6e-4 0.0104,-10e-4 0.008,-0.003 -0.002,-10e-4 -0.003,-0.002 -0.005,-0.002 z m -3.1671,0.006 c -0.002,-9e-5 -0.005,3.3e-4 -0.006,10e-4 -0.005,0.002 -0.004,0.003 0.003,0.004 0.006,2.6e-4 0.0104,-10e-4 0.008,-0.003 -0.002,-0.001 -0.003,-0.002 -0.006,-0.002 z m 0.42368,0 c -0.002,-9e-5 -0.005,3.3e-4 -0.007,10e-4 -0.005,0.002 -0.004,0.003 0.004,0.004 0.006,2.6e-4 0.0105,-10e-4 0.008,-0.003 h -1.6e-4 c -8.1e-4,-0.001 -0.003,-0.002 -0.005,-0.002 z m 2.29465,0 c -0.002,-9e-5 -0.005,3.3e-4 -0.007,10e-4 -0.005,0.002 -0.004,0.003 0.004,0.004 0.006,2.6e-4 0.0104,-10e-4 0.008,-0.003 -0.002,-0.001 -0.003,-0.002 -0.006,-0.002 z m 0.42352,0 c -0.002,-9e-5 -0.005,3.3e-4 -0.006,10e-4 -0.005,0.002 -0.004,0.003 0.004,0.004 0.006,2.6e-4 0.0104,-10e-4 0.008,-0.003 -8.1e-4,-0.001 -0.003,-0.002 -0.006,-0.002 z m -3.11598,0.006 c -0.003,0 -0.006,5.3e-4 -0.008,0.001 -0.004,0.002 -6.1e-4,0.003 0.008,0.003 0.009,0 0.0122,-10e-4 0.008,-0.003 -0.002,-8.1e-4 -0.005,-0.001 -0.008,-0.001 z m 0.3724,0 c -0.002,-9e-5 -0.005,3.3e-4 -0.006,0.001 -0.005,0.002 -0.004,0.003 0.004,0.004 0.006,2.6e-4 0.0104,-0.001 0.008,-0.003 -0.002,-10e-4 -0.003,-0.002 -0.005,-0.002 z m 2.3453,0 c -0.002,-9e-5 -0.005,3.3e-4 -0.006,0.001 -0.005,0.002 -0.004,0.003 0.004,0.004 0.006,2.6e-4 0.0104,-0.001 0.008,-0.003 -6.1e-4,-10e-4 -0.003,-0.002 -0.005,-0.002 z m 0.36723,0 c -0.003,0 -0.006,5.3e-4 -0.008,0.001 -0.004,0.002 -8.1e-4,0.003 0.008,0.003 0.009,0 0.0122,-10e-4 0.008,-0.003 -0.002,-8.1e-4 -0.005,-0.001 -0.008,-0.001 z m -3.05326,0.006 c -0.002,0 -0.006,3.6e-4 -0.008,10e-4 -0.004,0.002 -6.1e-4,0.003 0.008,0.003 0.009,0 0.0122,-0.001 0.008,-0.003 -0.002,-8.9e-4 -0.005,-10e-4 -0.008,-10e-4 z m 0.30969,0 c -0.003,0 -0.006,3.6e-4 -0.008,10e-4 -0.004,0.002 -6e-4,0.003 0.008,0.003 0.009,0 0.0122,-0.001 0.008,-0.003 -0.002,-8.9e-4 -0.005,-10e-4 -0.008,-10e-4 z m 2.40221,0 c -0.003,0 -0.006,3.6e-4 -0.008,10e-4 -0.004,0.002 -8.1e-4,0.003 0.008,0.003 0.009,0 0.0122,-0.001 0.008,-0.003 -0.002,-8.9e-4 -0.005,-10e-4 -0.008,-10e-4 z m 0.30969,0 c -0.003,0 -0.006,3.6e-4 -0.008,10e-4 -0.004,0.002 -0.002,0.003 0.008,0.003 0.009,0 0.012,-0.002 0.008,-0.003 h -1.6e-4 c -0.002,-8.9e-4 -0.005,-10e-4 -0.008,-10e-4 z m -2.97815,0.006 c -0.004,-4e-5 -0.007,2.8e-4 -0.0102,10e-4 -0.006,0.002 -0.003,0.003 0.008,0.003 0.0104,1.2e-4 0.0154,-10e-4 0.0111,-0.003 -0.002,-8.9e-4 -0.006,-10e-4 -0.009,-10e-4 z m 0.22752,0 c -0.004,-4e-5 -0.007,2.8e-4 -0.0102,10e-4 -0.006,0.002 -0.003,0.003 0.008,0.003 0.0104,1.2e-4 0.0154,-10e-4 0.0111,-0.003 -0.002,-8.9e-4 -0.006,-10e-4 -0.009,-10e-4 z m 2.48438,0 c -0.004,-4e-5 -0.007,2.8e-4 -0.0102,10e-4 -0.006,0.002 -0.003,0.003 0.008,0.003 0.0104,1.2e-4 0.0154,-10e-4 0.0111,-0.003 -0.002,-8.9e-4 -0.006,-10e-4 -0.009,-10e-4 z m 0.22752,0 c -0.004,-4e-5 -0.007,2.8e-4 -0.01,10e-4 -0.006,0.002 -0.003,0.003 0.008,0.003 0.0104,1.2e-4 0.0154,-10e-4 0.0111,-0.003 -0.002,-8.9e-4 -0.006,-10e-4 -0.009,-10e-4 z m -0.11353,0.006 c -0.0149,0 -0.0301,3.3e-4 -0.0419,8.9e-4 -0.0236,10e-4 -0.006,0.002 0.0392,0.002 0.0452,0 0.0646,-9.7e-4 0.043,-0.002 -0.0108,-5.9e-4 -0.0254,-8.9e-4 -0.0403,-8.9e-4 z" /></g></svg>
