<?xml version="1.0" encoding="UTF-8" standalone="no"?>
<!-- Created with Inkscape (http://www.inkscape.org/) -->

<svg
   width="45.872669"
   height="45.87252"
   viewBox="0 0 12.137144 12.137104"
   version="1.1"
   id="svg5"
   xml:space="preserve"
   xmlns="http://www.w3.org/2000/svg"
   xmlns:svg="http://www.w3.org/2000/svg"><defs
     id="defs2" /><g
     id="layer1"
     transform="translate(-962.75054,-776.54791)"><path
       style="fill:#343772;fill-opacity:1;stroke:none;stroke-width:0.00592489"
       d="m 968.65079,776.55646 c -0.20037,0.0263 -0.40838,0.0256 -0.61048,0.0459 -0.30851,0.0309 -0.62155,0.10429 -0.91868,0.19104 -1.53864,0.44925 -2.8733,1.5116 -3.63736,2.92335 -0.89591,1.65535 -0.98359,3.6983 -0.1956,5.41342 0.22028,0.47945 0.50168,0.93047 0.8364,1.33855 0.41581,0.50693 0.91343,0.94025 1.46738,1.29087 0.57087,0.3613 1.20865,0.62154 1.86701,0.77234 0.69441,0.15902 1.42201,0.19563 2.1278,0.10288 0.70952,-0.0932 1.39665,-0.30544 2.03297,-0.63362 1.95438,-1.008 3.21208,-3.06511 3.26572,-5.25198 0.0401,-1.63518 -0.61546,-3.2708 -1.77804,-4.4243 -0.69489,-0.68944 -1.5543,-1.20834 -2.48935,-1.49864 -0.47777,-0.14832 -0.97629,-0.23882 -1.47582,-0.26068 -0.16027,-0.007 -0.33179,-0.0301 -0.49195,-0.009 m -2.2167,3.03165 c 0.20962,-0.0247 0.45659,0.0444 0.60355,0.19991 0.28795,0.30464 0.21554,0.81147 -0.14717,1.01849 -0.0844,0.0482 -0.18773,0.0782 -0.2845,0.0878 -0.22295,0.0223 -0.45907,-0.0199 -0.62826,-0.1772 -0.30448,-0.28305 -0.24894,-0.80404 0.10076,-1.02159 0.10971,-0.0683 0.22953,-0.0926 0.35562,-0.10744 m 2.73828,2.3615 c 0.125,-0.26392 0.3635,-0.42992 0.63419,-0.5253 0.50972,-0.17961 1.13675,-0.0945 1.54696,0.26639 0.49555,0.43597 0.49786,1.11777 0.49786,1.72184 v 0.87065 0.63966 0.16584 c 0,0.0172 0.006,0.0471 -0.006,0.0616 -0.0132,0.0167 -0.0523,0.009 -0.071,0.009 h -0.18967 -0.78236 -0.2193 c -0.0197,0 -0.0627,0.008 -0.0735,-0.0137 -0.0187,-0.038 -0.003,-0.11585 -0.003,-0.15802 v -0.38498 -1.04241 c 0,-0.22276 0.0161,-0.45001 -0.0284,-0.66927 -0.0588,-0.28951 -0.26001,-0.52077 -0.56425,-0.54982 -0.33072,-0.0316 -0.63644,0.18171 -0.72647,0.50243 -0.0469,0.16715 -0.0144,0.37817 -0.0144,0.55082 v 1.11349 0.48567 c 0,0.0319 0.0169,0.13889 -0.009,0.15973 -0.0165,0.0131 -0.0537,0.006 -0.0735,0.006 h -0.19559 -0.75866 -0.2193 c -0.0197,0 -0.0627,0.008 -0.0735,-0.0137 -0.0262,-0.0533 -0.003,-0.16951 -0.003,-0.22909 0,-0.19154 0.006,-0.3835 0.006,-0.57451 v -2.06705 -0.64559 c 0,-0.0634 -0.03,-0.19061 -0.002,-0.24687 0.0108,-0.0218 0.0537,-0.0137 0.0735,-0.0137 h 0.2193 0.75866 0.19559 c 0.0197,0 0.057,-0.007 0.0735,0.006 0.0246,0.0195 0.009,0.11262 0.009,0.14198 v 0.43236 m -3.22241,-0.57686 c 0.0199,-0.01 0.0535,-0.004 0.0752,-0.004 h 0.18374 0.64011 0.1956 c 0.0187,0 0.0577,-0.007 0.071,0.009 0.0247,0.0311 0.006,0.13503 0.006,0.17411 v 0.48567 1.88937 0.92988 0.22506 c 0,0.0197 0.008,0.0627 -0.0138,0.0734 -0.0199,0.01 -0.0535,0.004 -0.0752,0.004 h -0.18374 -0.64012 -0.19558 c -0.0187,0 -0.0577,0.007 -0.071,-0.009 -0.0246,-0.0311 -0.006,-0.13504 -0.006,-0.17413 v -0.48567 -1.88937 -0.92988 -0.22506 c 0,-0.0197 -0.008,-0.0627 0.0138,-0.0734 z"
       id="path3225-91" /></g></svg>
